<?xml version="1.0" encoding="UTF-8"?>
<svg id="_圖層_2" data-name="圖層 2" xmlns="http://www.w3.org/2000/svg" width="1944" height="104" xmlns:xlink="http://www.w3.org/1999/xlink" viewBox="0 0 1944 104">
  <defs>
    <clipPath id="clippath">
      <rect x="1695.89" y="21.38" width="14.81" height="16.23" style="fill: none;"/>
    </clipPath>
  </defs>
  <g id="BG">
    <g id="HEADER">
      <rect id="_矩形_1866" data-name="矩形 1866" width="1944" height="104" style="fill: #fff;"/>
      <g id="_组_5350" data-name="组 5350">
        <g id="socical">
          <g id="EN">
            <g id="_7-Line" data-name=" 7-Line">
              <circle id="_椭圆_1" data-name="椭圆 1" cx="1743.39" cy="29.5" r="12.5" style="fill: #253e56;"/>
            </g>
            <g id="EN-2" style="isolation: isolate;">
              <g style="isolation: isolate;">
                <path d="m1741.57,35h-5.45v-9.83h5.22v1.31h-3.7v2.89h3.43v1.3h-3.43v3.02h3.92v1.31Z" style="fill: #fff;"/>
                <path d="m1751.61,35h-1.7l-4.7-7.25c-.17-.27-.3-.5-.38-.69h-.04c.04.25.06.73.06,1.44v6.51h-1.48v-9.83h1.8l4.56,7.11c.22.34.36.57.43.7h.03c-.05-.3-.07-.77-.07-1.41v-6.4h1.49v9.83Z" style="fill: #fff;"/>
              </g>
            </g>
          </g>
          <g id="_分享" data-name="分享">
            <g style="clip-path: url(#clippath);">
              <g id="_组_5247" data-name="组 5247">
                <path id="_路径_29578" data-name="路径 29578" d="m1698.71,26.68c.73,0,1.43.29,1.96.8l4.5-2.6c-.06-.22-.08-.45-.09-.68,0-1.55,1.26-2.81,2.81-2.82,1.55,0,2.81,1.26,2.82,2.81,0,1.55-1.26,2.81-2.81,2.82-.73,0-1.43-.28-1.96-.79l-4.5,2.6c.11.45.11.92,0,1.37l4.5,2.6c1.12-1.08,2.9-1.05,3.98.06,1.08,1.12,1.05,2.9-.06,3.98s-2.9,1.05-3.98-.06c-.51-.52-.79-1.23-.79-1.96,0-.23.03-.46.09-.69l-4.5-2.6c-1.12,1.08-2.9,1.04-3.98-.08-1.08-1.12-1.04-2.9.08-3.98.52-.5,1.22-.78,1.94-.78" style="fill: #253e56; fill-rule: evenodd;"/>
              </g>
            </g>
          </g>
          <g id="_组_5249" data-name="组 5249">
            <path id="sitemap" d="m1391.73,23.78c0-.99.8-1.78,1.78-1.78h2.38c.99,0,1.78.8,1.78,1.78h0v2.38c0,.99-.8,1.78-1.78,1.78h-.3v1.49h5.65c1.15,0,2.08.93,2.08,2.08v1.19h.3c.99,0,1.78.8,1.78,1.78h0v2.38c0,.99-.8,1.78-1.78,1.78h-2.38c-.99,0-1.78-.8-1.78-1.78h0v-2.38c0-.99.8-1.79,1.78-1.79,0,0,0,0,0,0h.3v-1.19c0-.17-.13-.3-.3-.3h-5.64v1.49h.3c.99,0,1.78.8,1.78,1.78h0v2.38c0,.99-.8,1.78-1.78,1.78h-2.39c-.98,0-1.78-.8-1.78-1.78v-2.38c0-.99.8-1.79,1.78-1.79,0,0,0,0,0,0h.3v-1.48h-5.65c-.17,0-.3.13-.3.3h0v1.18h.3c.99,0,1.78.8,1.78,1.78h0v2.38c0,.99-.8,1.78-1.78,1.78h-2.38c-.98,0-1.78-.8-1.78-1.78v-2.38c0-.99.8-1.79,1.78-1.79,0,0,0,0,0,0h.3v-1.19c0-1.15.93-2.08,2.08-2.08h5.65v-1.49h-.3c-.98,0-1.78-.8-1.78-1.78v-2.38Z" style="fill: #253e56;"/>
            <g id="_網站導覽" data-name="網站導覽" style="isolation: isolate;">
              <g style="isolation: isolate;">
                <path d="m1412.08,34.18c-.15,1.31-.44,2.69-.75,3.62-.18-.1-.6-.24-.81-.3.33-.93.56-2.25.71-3.45l.85.13Zm2.97-4.03c.39.94.83,2.14,1,2.86l-.84.33c-.04-.21-.12-.46-.18-.72-3.35.53-3.81.63-4.08.78-.03-.23-.19-.71-.31-.98.3-.06.63-.43,1.06-1,.24-.29.71-.93,1.23-1.75-1.56.18-1.88.25-2.07.36-.04-.21-.21-.71-.31-.96.22-.06.49-.38.79-.83.31-.45,1.33-2.16,1.92-3.78l.94.4c-.63,1.41-1.44,2.88-2.27,4.02l1.58-.15c.38-.64.78-1.37,1.09-2.07l.87.53c-.93,1.77-2.1,3.55-3.3,4.98l2.59-.36c-.17-.48-.36-.96-.52-1.4l.79-.27Zm-1.48,3.84c.19.99.36,2.28.42,3.15l-.84.21c-.03-.88-.21-2.19-.38-3.21l.79-.15Zm1.56-.39c.34.93.72,2.12.87,2.88l-.77.29c-.15-.79-.51-2-.84-2.91l.73-.26Zm8.76,3.3c0,.62-.12.89-.51,1.07-.36.18-.98.2-1.89.2-.03-.27-.15-.72-.29-.99.63.03,1.23.01,1.41.01.19-.01.25-.07.25-.29v-10.74h-5.61v12.01h-1v-13h7.63v11.73Zm-2.42-2.47c.24,0,.66-.01.88-.08.03.25.06.6.09.83-.2.06-.58.08-.96.08h-1.92c-.99,0-1.22-.36-1.22-1.35v-1.46h-.55v-.88h2.04c-.14-.41-.38-.93-.59-1.32l.69-.27h-2.29v-.88h2.85c.27-.71.57-1.75.71-2.47l.82.24c-.22.73-.51,1.59-.75,2.23h1.27v.88h-2.52c.25.44.52,1.02.66,1.35l-.54.24h2.22v.88h-3.09v1.47c0,.39.04.51.36.51h1.83Zm-2.62-7.84c.38.66.72,1.54.81,2.13l-.72.25c-.1-.58-.42-1.48-.78-2.14l.69-.24Z" style="fill: #253e56;"/>
                <path d="m1431.43,34.21l.1,1.02c-1.98.51-4.06,1.03-5.62,1.42l-.27-1.09c.87-.2,2.01-.44,3.24-.74.39-1.59.78-4.21.98-6.03l1.05.2c-.3,1.75-.71,4.04-1.09,5.61l1.62-.39Zm-5.61-6.96h5.79v1.04h-5.79v-1.04Zm1.48,1.73c.34,1.71.67,3.87.76,5.34l-.94.18c-.06-1.47-.38-3.66-.72-5.35l.9-.17Zm1.26-1.88c-.18-.62-.6-1.58-.99-2.28l.93-.29c.45.69.89,1.61,1.08,2.22l-1.02.34Zm6.88,1.51v2.96h3.15v6.51h-1.12v-.65h-4.5v.71h-1.08v-6.57h2.43v-7.12h1.12v3.11h3.78v1.06h-3.78Zm2.02,4h-4.5v3.76h4.5v-3.76Z" style="fill: #253e56;"/>
                <path d="m1450.78,34.27h3.19v.88h-3.19v1.72c0,.6-.12.87-.6,1.04s-1.25.17-2.46.17c-.06-.3-.23-.67-.38-.96.96.03,1.8.01,2.04,0,.24,0,.31-.06.31-.25v-1.71h-8.92v-.88h8.92v-.81h1.08v.81Zm-6.07-5.08c-.21.69-.5,1.32-.81,1.89.77,1.2,2.13,1.35,4.59,1.35,1.77,0,4.15-.04,5.8-.19-.17.22-.27.69-.33.97-1.5.08-3.66.13-5.46.13-2.73,0-4.17-.25-5.04-1.6-.61.83-1.33,1.46-2.08,1.92-.1-.24-.39-.65-.58-.79,1.12-.63,2.13-1.68,2.7-3.01h-1.36c-.36,0-.77.09-.85.21v-.02c-.07-.24-.29-.71-.39-.92.18-.06.42-.15.69-.39.26-.21.84-.79,1.35-1.33h-1.95v-.92h2.79l.26-.1.67.38c-.51.58-1.4,1.48-2.13,2.17h1.54l.18-.04.42.3Zm-2-2.96c-.19-.42-.63-1.05-.96-1.51l.92-.24c.38.45.79,1.05.99,1.46l-.94.3Zm1.62,8.94c.75.53,1.63,1.3,2.05,1.86l-.82.67c-.39-.55-1.26-1.38-2.01-1.93l.78-.6Zm3.84-7.78c.1-.24.21-.5.3-.75h-3.9v-.81h2.48c-.15-.36-.42-.79-.68-1.12l.9-.29c.33.39.67.96.81,1.33l-.22.08h2.44c.28-.42.61-.99.78-1.36l1.05.22c-.25.39-.52.79-.76,1.14h2.47v.81h-4.3c-.13.27-.24.52-.38.75h3.52v4.45h-7.14v-4.45h2.62Zm3.52.6h-5.19v.69h5.19v-.69Zm0,1.28h-5.19v.69h5.19v-.69Zm0,1.27h-5.19v.71h5.19v-.71Z" style="fill: #253e56;"/>
                <path d="m1467.55,37.08c.55,0,.65-.17.7-1.38.23.15.65.29.95.36-.12,1.53-.45,1.91-1.54,1.91h-2.58c-1.42,0-1.79-.25-1.79-1.26v-1.07h-2.19c-.51,1.52-1.79,2.17-5.02,2.5-.08-.24-.33-.66-.51-.87,2.87-.21,3.96-.63,4.41-1.63h-2.15v-4.81h9.12v4.81h-2.58v1.05c0,.35.12.39.81.39h2.37Zm-5.21-6.87h-6.07v-5.25h5.95v.72h-2.5v.73h2.08v2.21h-2.08v.87h2.62v.72Zm-5.1-4.53v.73h1.56v-.73h-1.56Zm3.58,1.42h-3.58v.84h3.58v-.84Zm-3.58,2.38h1.56v-.87h-1.56v.87Zm1.65,2.71h6.94v-.71h-6.94v.71Zm0,1.38h6.94v-.72h-6.94v.72Zm0,1.39h6.94v-.73h-6.94v.73Zm5.16-8.88c-.34.54-.77,1.05-1.3,1.51-.18-.22-.53-.53-.75-.63.92-.74,1.48-1.7,1.78-2.52l1,.15c-.09.24-.19.48-.31.72h4.54v.77h-4.96Zm-1.03,1.88h5.76v2.34h-5.76v-2.34Zm5.25-1.29v.71h-4.44v-.71h4.44Zm-4.44,3h.92v-1.1h-.92v1.1Zm1.56,0h.96v-1.1h-.96v1.1Zm1.6,0h.96v-1.1h-.96v1.1Z" style="fill: #253e56;"/>
              </g>
            </g>
          </g>
        </g>
        <g id="logo">
          <g id="logo-2">
            <g id="_组_1648" data-name="组 1648">
              <g id="_组_25" data-name="组 25">
                <path id="_路径_34" data-name="路径 34" d="m263.11,55.53c0,13.29-10.77,24.06-24.06,24.06s-24.06-10.77-24.06-24.06c0-13.29,10.77-24.06,24.06-24.06,13.29,0,24.06,10.77,24.06,24.05h0Z" style="fill: #fff;"/>
                <g id="_组_23" data-name="组 23">
                  <path id="_路径_35" data-name="路径 35" d="m260.78,64.19c-4.51,12.04-17.93,18.15-29.97,13.64-6.2-2.32-11.12-7.18-13.53-13.35h18.83l6.6-10.11s.35-.63.78-.09,7.92,10.03,7.92,10.03l9.37-.12" style="fill: #7db33d;"/>
                  <path id="_路径_36" data-name="路径 36" d="m260.78,64.19c-4.51,12.04-17.93,18.15-29.97,13.64-6.2-2.32-11.12-7.18-13.53-13.35h18.83l6.6-10.11s.35-.63.78-.09,7.92,10.03,7.92,10.03l9.37-.12" style="fill: #7db33d; stroke: #85c538; stroke-width: .31px;"/>
                </g>
                <path id="_路径_37" data-name="路径 37" d="m262.31,60.74c.24-1.4.35-2.82.35-4.24,0-13.57-10.61-24.57-23.7-24.57s-23.7,11-23.7,24.57c0,.3,0,.6.01.9h8.26l9.41-14.81s.35-1.09,1.39-.18c.79.72,1.51,1.51,2.18,2.35l-9.85,15h-11.4l.26,1.63h11.93l14.72-22.77c.15-.46.65-.7,1.1-.55.19.06.36.2.47.37.96,1.09,16.2,22.4,16.2,22.4l2.35-.09Z" style="fill: #007dc6;"/>
                <path id="_路径_38" data-name="路径 38" d="m262.31,60.74c.24-1.4.35-2.82.35-4.24,0-13.57-10.61-24.57-23.7-24.57s-23.7,11-23.7,24.57c0,.3,0,.6.01.9h8.26l9.41-14.81s.35-1.09,1.39-.18c.79.72,1.51,1.51,2.18,2.35l-9.85,15h-11.4l.26,1.63h11.93l14.72-22.77c.15-.46.65-.7,1.1-.55.19.06.36.2.47.37.96,1.09,16.2,22.4,16.2,22.4l2.35-.09Z" style="fill: none; stroke: #338bbc; stroke-width: .31px;"/>
                <g id="_组_24" data-name="组 24">
                  <path id="_路径_39" data-name="路径 39" d="m216.09,62.11h15.58l10.61-16.62s.52-.72,1.22.09,12.62,16.17,12.62,16.17l.4.41h5.43l-.35,1.03h-5.66l-12.7-15.81s-.35-.72-.87.18-9.73,15.63-9.73,15.63h-16.18l-.37-1.09Z" style="fill: #7db33d;"/>
                  <path id="_路径_40" data-name="路径 40" d="m216.09,62.11h15.58l10.61-16.62s.52-.72,1.22.09,12.62,16.17,12.62,16.17l.4.41h5.43l-.35,1.03h-5.66l-12.7-15.81s-.35-.72-.87.18-9.73,15.63-9.73,15.63h-16.18l-.37-1.09Z" style="fill: #7db33d; stroke: #85c538; stroke-width: .31px;"/>
                </g>
                <path id="_路径_2467" data-name="路径 2467" d="m263.11,55.53c0,13.29-10.77,24.06-24.06,24.06s-24.06-10.77-24.06-24.06c0-13.29,10.77-24.06,24.06-24.06,13.29,0,24.06,10.77,24.06,24.05h0Z" style="fill: none; stroke: #fff;"/>
              </g>
              <g id="_行政院環境保護署" data-name="行政院環境保護署" style="isolation: isolate;">
                <g style="isolation: isolate;">
                  <path d="m276,41.31c-.62,1.02-1.36,2.06-2.18,3.06v10.42h-1.86v-8.36c-.66.66-1.34,1.28-1.98,1.8-.24-.4-.9-1.22-1.28-1.58,2.04-1.46,4.2-3.74,5.54-6l1.76.66Zm-.76-4.2c-1.36,1.78-3.44,3.76-5.28,5.06-.22-.42-.72-1.14-1.06-1.5,1.66-1.08,3.58-2.86,4.56-4.3l1.78.74Zm12,7.68h-2.88v7.7c0,1.06-.24,1.6-1,1.9-.74.28-1.92.3-3.78.3-.08-.54-.34-1.32-.6-1.86,1.28.04,2.62.04,2.98.02.38,0,.5-.1.5-.38v-7.68h-6.32v-1.78h11.1v1.78Zm-.56-5.46h-9.7v-1.78h9.7v1.78Z" style="fill: #253e56;"/>
                  <path d="m306.04,41.79c-.5,3.18-1.26,5.8-2.48,7.92,1.02,1.5,2.34,2.68,3.96,3.44-.42.38-1,1.08-1.26,1.58-1.56-.82-2.8-1.96-3.82-3.36-1.12,1.38-2.54,2.5-4.3,3.42-.18-.42-.72-1.26-1.08-1.64,1.86-.86,3.28-2,4.34-3.48-.8-1.48-1.4-3.18-1.86-5.04-.34.58-.68,1.1-1.04,1.6-.22-.28-.72-.7-1.12-1.02h-2.22v4.6l3.14-.66.18,1.68c-3.28.78-6.78,1.6-9.28,2.14l-.34-1.86,1.12-.22v-8.68h1.68v8.36l1.68-.36v-10.72h-4.08v-1.8h9.08v1.8h-3.18v3.96h2.5v.62c1.3-1.98,2.14-4.78,2.66-7.7l1.84.32c-.22,1.16-.5,2.28-.8,3.36h6v1.74h-1.32Zm-5.38.32c.42,2.1,1,4.04,1.84,5.74.82-1.7,1.32-3.7,1.68-6.06h-3.4l-.12.32Z" style="fill: #253e56;"/>
                  <path d="m315.72,37.83c-.56,1.64-1.26,3.6-1.86,5.14,1.32,1.64,1.62,3.06,1.62,4.26s-.24,2-.82,2.44c-.3.22-.66.34-1.08.4-.36.04-.86.04-1.32.04-.02-.46-.16-1.16-.42-1.62.38.02.74.04,1.02.02.24,0,.42-.06.58-.16.28-.22.4-.72.4-1.3,0-1.02-.32-2.36-1.64-3.86.5-1.32,1.04-3,1.4-4.32h-2.18v15.84h-1.64v-17.5h4.46l.26-.08,1.22.7Zm9.72,15.08c.38,0,.46-.32.5-2.46.38.32,1.1.58,1.56.68-.16,2.68-.58,3.36-1.86,3.36h-1.62c-1.54,0-1.9-.5-1.9-2.18v-4.72h-1.74c-.32,3.5-1.28,5.84-5.06,7.16-.2-.46-.68-1.14-1.06-1.48,3.32-1.06,4.06-2.86,4.32-5.68h-2.6v-1.66h11.26v1.66h-3.36v4.7c0,.54.06.62.44.62h1.12Zm-7.94-10.44h-1.58v-3.68h4.86c-.24-.64-.6-1.46-.94-2.06l1.72-.5c.48.8,1,1.86,1.22,2.56h4.36v3.68h-1.58v1.52h-8.06v-1.52Zm.14-2.06v1.96h7.72v-1.96h-7.72Z" style="fill: #253e56;"/>
                  <path d="m346.94,50.15c-.82.46-1.76.96-2.6,1.34.86.76,1.94,1.3,3.16,1.64-.38.32-.88.98-1.1,1.42-2.72-.9-4.54-2.86-5.56-5.48-.64.56-1.38,1.12-2.2,1.58v2.04l3.08-.66c-.04.4-.04,1.04-.02,1.36-3.7.9-4.3,1.1-4.66,1.32v-.02c-.1-.36-.4-1-.62-1.3.28-.14.72-.48.72-1.28v-.66c-.64.32-1.32.58-1.94.78-.2-.34-.56-.82-.88-1.14-1.82.56-3.66,1.1-5.18,1.52l-.36-1.7c.64-.14,1.36-.34,2.16-.56v-5.3h-1.74v-1.62h1.74v-4.12h-1.9v-1.66h5.34v1.66h-1.82v4.12h1.6v1.62h-1.6v4.86c.56-.16,1.14-.34,1.7-.5l.2,1.44c1.54-.42,3.24-1.14,4.52-1.98h-2.7v-4.22h9.62v4.22h-3.52c.28.6.64,1.16,1.04,1.66.82-.46,1.72-1.06,2.28-1.5l1.24,1.12Zm.12-6.42h-12.02v-1.48h12.02v1.48Zm-.64-2.34h-10.6v-4.32h10.6v4.32Zm-7.48-3h-1.58v1.7h1.58v-1.7Zm-1,9.14h6.2v-1.54h-6.2v1.54Zm3.92-9.14h-1.64v1.7h1.64v-1.7Zm2.96,0h-1.68v1.7h1.68v-1.7Z" style="fill: #253e56;"/>
                  <path d="m355.42,49.87c-2.04.84-4.22,1.72-5.94,2.38l-.62-1.9c.68-.22,1.5-.48,2.4-.8v-6.6h-2.08v-1.76h2.08v-4.54h1.82v4.54h1.82v1.76h-1.82v5.94l1.96-.72.38,1.7Zm9.38,3.16c.24,0,.46-.02.58-.06.12-.06.22-.18.28-.42.06-.26.08-.82.1-1.6.34.3.98.62,1.46.78-.04.78-.12,1.58-.26,1.9-.18.34-.44.56-.78.68-.3.12-.84.16-1.22.16h-1.32c-.48,0-1.08-.12-1.42-.4-.36-.28-.5-.64-.5-1.76v-2.72h-1.62c-.36,2.76-1.36,4.32-5.06,5.24-.14-.44-.6-1.12-.96-1.46,3.18-.62,3.96-1.7,4.24-3.78h-1.88v-5.8h9.24v5.8h-2.24v2.82c0,.28.02.46.14.52.1.08.24.1.44.1h.78Zm1.9-10.1h-11.14v-1.56h2.64c-.14-.5-.34-1.14-.54-1.66l1.5-.34c.28.6.56,1.38.68,1.9l-.38.1h2.82c.24-.62.56-1.38.72-1.96l1.7.34c-.28.56-.52,1.12-.78,1.62h2.78v1.56Zm-.52-3.66h-10.04v-1.54h4.12c-.14-.4-.28-.8-.44-1.14l1.72-.34c.24.46.48,1,.64,1.48h4v1.54Zm-8.04,6.82h5.76v-1.06h-5.76v1.06Zm0,2.28h5.76v-1.12h-5.76v1.12Z" style="fill: #253e56;"/>
                  <path d="m375.32,37.01c-.58,1.42-1.26,2.84-2.04,4.18v13.52h-1.78v-10.8c-.56.76-1.16,1.48-1.76,2.08-.18-.44-.7-1.44-1.04-1.88,1.94-1.84,3.78-4.72,4.88-7.66l1.74.56Zm3.52,11.94c-.88,1.7-2.16,3.62-3.24,4.88-.32-.3-1.02-.82-1.44-1.04,1.08-1.14,2.24-2.82,3-4.36l1.68.52Zm3-1.32v7.14h-1.86v-7.14h-5.52v-1.7h5.52v-2.1h-4.12v-6.52h10.34v6.52h-4.36v2.1h5.44v1.7h-5.44Zm-4.24-5.46h6.74v-3.22h-6.74v3.22Zm6.58,6.24c1.22,1.38,2.56,3.18,3.22,4.36l-1.5.92c-.6-1.22-1.96-3.12-3.12-4.5l1.4-.78Z" style="fill: #253e56;"/>
                  <path d="m396.18,41.21h-7.14v-1.48h3.56c-.32-.74-.9-1.88-1.42-2.72l1.4-.72c.54.82,1.14,1.9,1.46,2.62l-1.4.82h3.54v1.48Zm-.62,12.38h-4.18v.9h-1.56v-6.76h5.74v5.86Zm-.04-9.74h-5.66v-1.46h5.66v1.46Zm-5.66,1.2h5.66v1.44h-5.66v-1.44Zm1.52,4.18v2.86h2.6v-2.86h-2.6Zm6.12-5.24c-.3.36-.58.7-.88,1-.2-.32-.68-1.04-.98-1.38,1.06-.98,2-2.5,2.52-4.06l1.1.34v-.96h-3.02v-1.42h3.02v-1.1h1.64v3.54h-1.44l.2.06c-.14.4-.3.76-.48,1.14h2.24c-.12-.38-.26-.78-.4-1.12l1.66-.44.04.1v-3.28h1.66v1.08h2.84v1.44h-2.84v1.02h-1.56c.16.4.32.84.42,1.2h3.52v1.2h-3.68v.84h3.16v1.02h-3.16v.86h3.16v1h-3.16v.88h4.12v1.16h-8.16v.36h-1.54v-4.48Zm8.94,5.34c-.68,1.24-1.7,2.24-2.92,3.02,1.22.42,2.64.74,4.08.92-.36.36-.84,1.04-1.04,1.48-1.74-.28-3.38-.76-4.8-1.46-1.6.72-3.4,1.2-5.24,1.5-.16-.44-.5-1.12-.82-1.5,1.52-.2,3.04-.52,4.4-.98-.78-.56-1.46-1.2-2.02-1.92l.72-.24h-2.22v-1.3h8.48l.32-.08,1.06.56Zm-4.9-6.98h-2.5v.84h2.5v-.84Zm0,1.86h-2.5v.86h2.5v-.86Zm0,1.86h-2.5v.88h2.5v-.88Zm-1.72,4.08c.54.54,1.2,1.04,1.98,1.46.8-.42,1.52-.9,2.08-1.46h-4.06Z" style="fill: #253e56;"/>
                  <path d="m420.82,46.79c-.76.4-1.52.78-2.3,1.12h6.76v6.74h-1.8v-.52h-8.3v.58h-1.72v-4.9c-1.22.4-2.44.74-3.64,1.02-.18-.4-.62-1.2-.92-1.58,2.8-.58,5.6-1.4,8.18-2.46h-7.72v-1.5h7.32v-1.28h-5.26v-1.46h5.26v-1.18h-6.2v-4.26h15.54v4.26h-7.54v1.18h4.3v1.08c.72-.54,1.38-1.1,1.96-1.7l1.5.92c-.86.88-1.86,1.7-2.94,2.44h3.72v1.5h-6.2Zm-5.82-8.36h-2.76v1.62h2.76v-1.62Zm8.48,10.84h-8.3v1.08h8.3v-1.08Zm0,3.5v-1.2h-8.3v1.2h8.3Zm-6.78-12.72h2.86v-1.62h-2.86v1.62Zm3.5,5.24c.72-.4,1.42-.82,2.06-1.28h-3.78v1.28h1.72Zm1.06-5.24h2.92v-1.62h-2.92v1.62Z" style="fill: #253e56;"/>
                </g>
              </g>
              <g id="Environmental_Protection_AdministrationExecutive_Yuan_R.O.C._Taiwan_" data-name="Environmental Protection AdministrationExecutive Yuan R.O.C. Taiwan " style="isolation: isolate;">
                <g style="isolation: isolate;">
                  <path d="m273.78,65h-2.23v-4.2h2.13v.45h-1.64v1.4h1.52v.44h-1.52v1.47h1.73v.45Z" style="fill: #253e56;"/>
                  <path d="m277.01,65h-.48v-1.71c0-.64-.23-.96-.7-.96-.24,0-.44.09-.6.27s-.24.41-.24.68v1.71h-.48v-3h.48v.5h.01c.23-.38.55-.57.98-.57.33,0,.58.11.75.32s.26.52.26.92v1.83Z" style="fill: #253e56;"/>
                  <path d="m280.28,62l-1.2,3h-.47l-1.14-3h.53l.76,2.18c.06.16.09.3.11.42h.01c.02-.15.05-.29.09-.41l.8-2.19h.51Z" style="fill: #253e56;"/>
                  <path d="m281.04,61.24c-.09,0-.16-.03-.22-.09s-.09-.13-.09-.22.03-.16.09-.22c.06-.06.13-.09.22-.09s.16.03.22.09c.06.06.09.13.09.22s-.03.16-.09.22-.14.09-.22.09Zm.23,3.76h-.48v-3h.48v3Z" style="fill: #253e56;"/>
                  <path d="m283.81,62.49c-.08-.06-.21-.1-.36-.1-.21,0-.38.1-.51.29s-.21.46-.21.79v1.53h-.48v-3h.48v.62h.01c.07-.21.17-.38.31-.49s.3-.18.47-.18c.12,0,.22.01.29.04v.5Z" style="fill: #253e56;"/>
                  <path d="m285.58,65.07c-.44,0-.8-.14-1.06-.42s-.4-.65-.4-1.12c0-.5.14-.9.41-1.18s.65-.42,1.12-.42.8.14,1.05.41.38.66.38,1.15-.13.86-.41,1.15-.63.43-1.09.43Zm.04-2.74c-.31,0-.55.11-.73.31-.18.21-.27.5-.27.87s.09.64.27.84.42.31.73.31.55-.1.72-.3.25-.49.25-.86-.08-.66-.25-.87-.41-.3-.72-.3Z" style="fill: #253e56;"/>
                  <path d="m290.34,65h-.48v-1.71c0-.64-.23-.96-.7-.96-.24,0-.44.09-.6.27s-.24.41-.24.68v1.71h-.48v-3h.48v.5h.01c.23-.38.55-.57.98-.57.33,0,.58.11.75.32s.26.52.26.92v1.83Z" style="fill: #253e56;"/>
                  <path d="m295.5,65h-.48v-1.72c0-.33-.05-.57-.15-.72s-.28-.22-.52-.22c-.21,0-.38.09-.52.28s-.22.41-.22.67v1.71h-.48v-1.78c0-.59-.23-.88-.68-.88-.21,0-.38.09-.52.27s-.21.41-.21.69v1.71h-.48v-3h.48v.47h.01c.21-.36.52-.54.93-.54.21,0,.38.06.54.17.15.11.26.26.31.45.22-.41.55-.62,1-.62.66,0,.99.41.99,1.22v1.85Z" style="fill: #253e56;"/>
                  <path d="m298.82,63.62h-2.12c0,.33.1.59.27.77s.41.27.71.27c.34,0,.65-.11.93-.33v.45c-.26.19-.61.29-1.05.29s-.76-.14-1-.41c-.24-.27-.36-.66-.36-1.15,0-.47.13-.85.4-1.14s.59-.44.99-.44.7.13.91.38.32.61.32,1.06v.25Zm-.49-.41c0-.28-.07-.49-.2-.65s-.32-.23-.55-.23-.42.08-.58.24-.26.37-.29.64h1.62Z" style="fill: #253e56;"/>
                  <path d="m302.04,65h-.48v-1.71c0-.64-.23-.96-.7-.96-.24,0-.44.09-.6.27s-.24.41-.24.68v1.71h-.48v-3h.48v.5h.01c.23-.38.55-.57.98-.57.33,0,.58.11.75.32s.26.52.26.92v1.83Z" style="fill: #253e56;"/>
                  <path d="m304.33,64.97c-.11.06-.26.09-.45.09-.53,0-.79-.29-.79-.88v-1.78h-.52v-.41h.52v-.73l.48-.16v.89h.76v.41h-.76v1.69c0,.2.03.34.1.43s.18.13.34.13c.12,0,.23-.03.31-.1v.41Z" style="fill: #253e56;"/>
                  <path d="m307.12,65h-.48v-.47h-.01c-.21.36-.52.54-.92.54-.3,0-.53-.08-.7-.24s-.25-.37-.25-.63c0-.56.33-.89.99-.98l.9-.13c0-.51-.21-.76-.62-.76-.36,0-.69.12-.98.37v-.49c.29-.19.63-.28,1.02-.28.71,0,1.06.37,1.06,1.12v1.95Zm-.48-1.52l-.72.1c-.22.03-.39.09-.5.17-.11.08-.17.22-.17.42,0,.15.05.27.16.36s.24.14.42.14c.24,0,.44-.08.59-.25.16-.17.23-.38.23-.63v-.3Z" style="fill: #253e56;"/>
                  <path d="m308.51,65h-.48v-4.44h.48v4.44Z" style="fill: #253e56;"/>
                  <path d="m311.68,63.41v1.59h-.49v-4.2h1.15c.45,0,.8.11,1.04.33s.37.53.37.93-.14.72-.41.98-.65.38-1.11.38h-.55Zm0-2.17v1.72h.52c.34,0,.6-.08.78-.23.18-.16.27-.38.27-.66,0-.55-.33-.83-.98-.83h-.58Z" style="fill: #253e56;"/>
                  <path d="m316.05,62.49c-.08-.06-.21-.1-.36-.1-.21,0-.38.1-.51.29s-.21.46-.21.79v1.53h-.48v-3h.48v.62h.01c.07-.21.17-.38.31-.49s.3-.18.47-.18c.12,0,.22.01.29.04v.5Z" style="fill: #253e56;"/>
                  <path d="m317.82,65.07c-.44,0-.8-.14-1.06-.42s-.4-.65-.4-1.12c0-.5.14-.9.41-1.18s.65-.42,1.12-.42.8.14,1.05.41.38.66.38,1.15-.13.86-.41,1.15-.63.43-1.09.43Zm.04-2.74c-.31,0-.55.11-.73.31-.18.21-.27.5-.27.87s.09.64.27.84.42.31.73.31.55-.1.72-.3.25-.49.25-.86-.08-.66-.25-.87-.41-.3-.72-.3Z" style="fill: #253e56;"/>
                  <path d="m321.48,64.97c-.11.06-.26.09-.45.09-.53,0-.79-.29-.79-.88v-1.78h-.52v-.41h.52v-.73l.48-.16v.89h.76v.41h-.76v1.69c0,.2.03.34.1.43s.18.13.34.13c.12,0,.23-.03.31-.1v.41Z" style="fill: #253e56;"/>
                  <path d="m324.53,63.62h-2.12c0,.33.1.59.27.77s.41.27.71.27c.34,0,.65-.11.93-.33v.45c-.26.19-.61.29-1.05.29s-.76-.14-1-.41c-.24-.27-.36-.66-.36-1.15,0-.47.13-.85.4-1.14s.59-.44.99-.44.7.13.91.38.32.61.32,1.06v.25Zm-.49-.41c0-.28-.07-.49-.2-.65s-.32-.23-.55-.23-.42.08-.58.24-.26.37-.29.64h1.62Z" style="fill: #253e56;"/>
                  <path d="m327.3,64.86c-.23.14-.5.21-.82.21-.43,0-.77-.14-1.04-.42-.26-.28-.39-.64-.39-1.08,0-.49.14-.89.42-1.19.28-.3.66-.45,1.13-.45.26,0,.5.05.7.15v.49c-.22-.16-.46-.23-.71-.23-.31,0-.56.11-.75.33-.2.22-.29.51-.29.87s.09.63.28.83.43.3.74.3c.26,0,.51-.09.74-.26v.46Z" style="fill: #253e56;"/>
                  <path d="m329.42,64.97c-.11.06-.26.09-.45.09-.53,0-.79-.29-.79-.88v-1.78h-.52v-.41h.52v-.73l.48-.16v.89h.76v.41h-.76v1.69c0,.2.03.34.1.43s.18.13.34.13c.12,0,.23-.03.31-.1v.41Z" style="fill: #253e56;"/>
                  <path d="m330.31,61.24c-.09,0-.16-.03-.22-.09s-.09-.13-.09-.22.03-.16.09-.22c.06-.06.13-.09.22-.09s.16.03.22.09c.06.06.09.13.09.22s-.03.16-.09.22-.14.09-.22.09Zm.23,3.76h-.48v-3h.48v3Z" style="fill: #253e56;"/>
                  <path d="m332.77,65.07c-.44,0-.8-.14-1.06-.42s-.4-.65-.4-1.12c0-.5.14-.9.41-1.18s.65-.42,1.12-.42.8.14,1.05.41.38.66.38,1.15-.13.86-.41,1.15-.63.43-1.09.43Zm.04-2.74c-.31,0-.55.11-.73.31-.18.21-.27.5-.27.87s.09.64.27.84.42.31.73.31.55-.1.72-.3.25-.49.25-.86-.08-.66-.25-.87-.41-.3-.72-.3Z" style="fill: #253e56;"/>
                  <path d="m337.52,65h-.48v-1.71c0-.64-.23-.96-.7-.96-.24,0-.44.09-.6.27s-.24.41-.24.68v1.71h-.48v-3h.48v.5h.01c.23-.38.55-.57.98-.57.33,0,.58.11.75.32s.26.52.26.92v1.83Z" style="fill: #253e56;"/>
                  <path d="m343.39,65h-.54l-.45-1.18h-1.78l-.42,1.18h-.55l1.61-4.2h.51l1.62,4.2Zm-1.15-1.62l-.66-1.79c-.02-.06-.04-.15-.06-.28h-.01c-.02.12-.04.21-.07.28l-.65,1.79h1.46Z" style="fill: #253e56;"/>
                  <path d="m346.5,65h-.48v-.51h-.01c-.22.39-.57.58-1.03.58-.38,0-.68-.13-.9-.4s-.34-.63-.34-1.1c0-.5.12-.89.38-1.19s.58-.45,1-.45.71.16.9.49h.01v-1.86h.48v4.44Zm-.48-1.36v-.44c0-.24-.08-.45-.24-.62s-.36-.25-.61-.25c-.29,0-.52.11-.69.32s-.25.51-.25.89c0,.35.08.62.24.82.16.2.38.3.65.3s.49-.1.65-.29.25-.44.25-.73Z" style="fill: #253e56;"/>
                  <path d="m351.73,65h-.48v-1.72c0-.33-.05-.57-.15-.72s-.28-.22-.52-.22c-.21,0-.38.09-.52.28s-.22.41-.22.67v1.71h-.48v-1.78c0-.59-.23-.88-.68-.88-.21,0-.38.09-.52.27s-.21.41-.21.69v1.71h-.48v-3h.48v.47h.01c.21-.36.52-.54.93-.54.21,0,.38.06.54.17.15.11.26.26.31.45.22-.41.55-.62,1-.62.66,0,.99.41.99,1.22v1.85Z" style="fill: #253e56;"/>
                  <path d="m352.89,61.24c-.09,0-.16-.03-.22-.09s-.09-.13-.09-.22.03-.16.09-.22c.06-.06.13-.09.22-.09s.16.03.22.09c.06.06.09.13.09.22s-.03.16-.09.22-.14.09-.22.09Zm.23,3.76h-.48v-3h.48v3Z" style="fill: #253e56;"/>
                  <path d="m356.58,65h-.48v-1.71c0-.64-.23-.96-.7-.96-.24,0-.44.09-.6.27s-.24.41-.24.68v1.71h-.48v-3h.48v.5h.01c.23-.38.55-.57.98-.57.33,0,.58.11.75.32s.26.52.26.92v1.83Z" style="fill: #253e56;"/>
                  <path d="m357.74,61.24c-.09,0-.16-.03-.22-.09s-.09-.13-.09-.22.03-.16.09-.22c.06-.06.13-.09.22-.09s.16.03.22.09c.06.06.09.13.09.22s-.03.16-.09.22-.14.09-.22.09Zm.23,3.76h-.48v-3h.48v3Z" style="fill: #253e56;"/>
                  <path d="m358.76,64.89v-.52c.26.19.55.29.86.29.42,0,.63-.14.63-.42,0-.08-.02-.15-.05-.2-.04-.06-.08-.11-.15-.15s-.13-.08-.22-.12-.17-.07-.27-.11c-.13-.05-.25-.11-.35-.16-.1-.05-.18-.11-.25-.18-.07-.07-.12-.14-.15-.23s-.05-.19-.05-.3c0-.14.03-.27.1-.37.06-.11.15-.2.26-.27.11-.07.23-.13.37-.17s.28-.06.43-.06c.26,0,.49.04.7.13v.49c-.22-.14-.47-.22-.76-.22-.09,0-.17,0-.24.03-.07.02-.13.05-.19.09s-.09.08-.12.13c-.03.05-.04.11-.04.17,0,.08.01.14.04.2s.07.1.12.14.12.08.2.11.17.07.27.11c.13.05.25.1.36.16.11.05.2.12.27.18.07.07.13.15.17.23s.06.19.06.31c0,.15-.03.28-.1.39s-.15.2-.26.27-.24.13-.38.16-.29.05-.45.05c-.31,0-.58-.06-.8-.18Z" style="fill: #253e56;"/>
                  <path d="m362.88,64.97c-.11.06-.26.09-.45.09-.53,0-.79-.29-.79-.88v-1.78h-.52v-.41h.52v-.73l.48-.16v.89h.76v.41h-.76v1.69c0,.2.03.34.1.43s.18.13.34.13c.12,0,.23-.03.31-.1v.41Z" style="fill: #253e56;"/>
                  <path d="m365.09,62.49c-.08-.06-.21-.1-.36-.1-.21,0-.38.1-.51.29s-.21.46-.21.79v1.53h-.48v-3h.48v.62h.01c.07-.21.17-.38.31-.49s.3-.18.47-.18c.12,0,.22.01.29.04v.5Z" style="fill: #253e56;"/>
                  <path d="m367.76,65h-.48v-.47h-.01c-.21.36-.52.54-.92.54-.3,0-.53-.08-.7-.24s-.25-.37-.25-.63c0-.56.33-.89.99-.98l.9-.13c0-.51-.21-.76-.62-.76-.36,0-.69.12-.98.37v-.49c.29-.19.63-.28,1.02-.28.71,0,1.06.37,1.06,1.12v1.95Zm-.48-1.52l-.72.1c-.22.03-.39.09-.5.17-.11.08-.17.22-.17.42,0,.15.05.27.16.36s.24.14.42.14c.24,0,.44-.08.59-.25.16-.17.23-.38.23-.63v-.3Z" style="fill: #253e56;"/>
                  <path d="m370.05,64.97c-.11.06-.26.09-.45.09-.53,0-.79-.29-.79-.88v-1.78h-.52v-.41h.52v-.73l.48-.16v.89h.76v.41h-.76v1.69c0,.2.03.34.1.43s.18.13.34.13c.12,0,.23-.03.31-.1v.41Z" style="fill: #253e56;"/>
                  <path d="m370.94,61.24c-.09,0-.16-.03-.22-.09s-.09-.13-.09-.22.03-.16.09-.22c.06-.06.13-.09.22-.09s.16.03.22.09c.06.06.09.13.09.22s-.03.16-.09.22-.14.09-.22.09Zm.23,3.76h-.48v-3h.48v3Z" style="fill: #253e56;"/>
                  <path d="m373.4,65.07c-.44,0-.8-.14-1.06-.42s-.4-.65-.4-1.12c0-.5.14-.9.41-1.18s.65-.42,1.12-.42.8.14,1.05.41.38.66.38,1.15-.13.86-.41,1.15-.63.43-1.09.43Zm.04-2.74c-.31,0-.55.11-.73.31-.18.21-.27.5-.27.87s.09.64.27.84.42.31.73.31.55-.1.72-.3.25-.49.25-.86-.08-.66-.25-.87-.41-.3-.72-.3Z" style="fill: #253e56;"/>
                  <path d="m378.15,65h-.48v-1.71c0-.64-.23-.96-.7-.96-.24,0-.44.09-.6.27s-.24.41-.24.68v1.71h-.48v-3h.48v.5h.01c.23-.38.55-.57.98-.57.33,0,.58.11.75.32s.26.52.26.92v1.83Z" style="fill: #253e56;"/>
                  <path d="m381.35,65h-2.23v-4.2h2.13v.45h-1.64v1.4h1.52v.44h-1.52v1.47h1.73v.45Z" style="fill: #253e56;"/>
                  <path d="m384.28,62l-1.01,1.52.99,1.48h-.56l-.59-.97c-.04-.06-.08-.14-.13-.23h-.01s-.06.09-.14.23l-.6.97h-.55l1.02-1.47-.98-1.53h.56l.58,1.03c.04.08.08.15.13.23h.01l.75-1.26h.53Z" style="fill: #253e56;"/>
                  <path d="m387.26,63.62h-2.12c0,.33.1.59.27.77s.41.27.71.27c.34,0,.65-.11.93-.33v.45c-.26.19-.61.29-1.05.29s-.76-.14-1-.41c-.24-.27-.36-.66-.36-1.15,0-.47.13-.85.4-1.14s.59-.44.99-.44.7.13.91.38.32.61.32,1.06v.25Zm-.49-.41c0-.28-.07-.49-.2-.65s-.32-.23-.55-.23-.42.08-.58.24-.26.37-.29.64h1.62Z" style="fill: #253e56;"/>
                  <path d="m390.03,64.86c-.23.14-.5.21-.82.21-.43,0-.77-.14-1.04-.42-.26-.28-.39-.64-.39-1.08,0-.49.14-.89.42-1.19.28-.3.66-.45,1.13-.45.26,0,.5.05.7.15v.49c-.22-.16-.46-.23-.71-.23-.31,0-.56.11-.75.33-.2.22-.29.51-.29.87s.09.63.28.83.43.3.74.3c.26,0,.51-.09.74-.26v.46Z" style="fill: #253e56;"/>
                  <path d="m393.18,65h-.48v-.47h-.01c-.2.36-.51.54-.93.54-.71,0-1.07-.43-1.07-1.28v-1.79h.48v1.72c0,.63.24.95.73.95.23,0,.43-.09.58-.26.15-.17.23-.4.23-.68v-1.73h.48v3Z" style="fill: #253e56;"/>
                  <path d="m395.54,64.97c-.11.06-.26.09-.45.09-.53,0-.79-.29-.79-.88v-1.78h-.52v-.41h.52v-.73l.48-.16v.89h.76v.41h-.76v1.69c0,.2.03.34.1.43s.18.13.34.13c.12,0,.23-.03.31-.1v.41Z" style="fill: #253e56;"/>
                  <path d="m396.43,61.24c-.09,0-.16-.03-.22-.09s-.09-.13-.09-.22.03-.16.09-.22c.06-.06.13-.09.22-.09s.16.03.22.09c.06.06.09.13.09.22s-.03.16-.09.22-.14.09-.22.09Zm.23,3.76h-.48v-3h.48v3Z" style="fill: #253e56;"/>
                  <path d="m400,62l-1.2,3h-.47l-1.14-3h.53l.76,2.18c.06.16.09.3.11.42h.01c.02-.15.05-.29.09-.41l.8-2.19h.51Z" style="fill: #253e56;"/>
                  <path d="m402.92,63.62h-2.12c0,.33.1.59.27.77s.41.27.71.27c.34,0,.65-.11.93-.33v.45c-.26.19-.61.29-1.05.29s-.76-.14-1-.41c-.24-.27-.36-.66-.36-1.15,0-.47.13-.85.4-1.14s.59-.44.99-.44.7.13.91.38.32.61.32,1.06v.25Zm-.49-.41c0-.28-.07-.49-.2-.65s-.32-.23-.55-.23-.42.08-.58.24-.26.37-.29.64h1.62Z" style="fill: #253e56;"/>
                  <path d="m408.09,60.8l-1.39,2.65v1.55h-.49v-1.54l-1.35-2.66h.56l.94,1.9s.05.11.1.26h0c.02-.07.06-.15.11-.26l.98-1.9h.52Z" style="fill: #253e56;"/>
                  <path d="m411.04,65h-.48v-.47h-.01c-.2.36-.51.54-.93.54-.71,0-1.07-.43-1.07-1.28v-1.79h.48v1.72c0,.63.24.95.73.95.23,0,.43-.09.58-.26.15-.17.23-.4.23-.68v-1.73h.48v3Z" style="fill: #253e56;"/>
                  <path d="m414.15,65h-.48v-.47h-.01c-.21.36-.52.54-.92.54-.3,0-.53-.08-.7-.24s-.25-.37-.25-.63c0-.56.33-.89.99-.98l.9-.13c0-.51-.21-.76-.62-.76-.36,0-.69.12-.98.37v-.49c.29-.19.63-.28,1.02-.28.71,0,1.06.37,1.06,1.12v1.95Zm-.48-1.52l-.72.1c-.22.03-.39.09-.5.17-.11.08-.17.22-.17.42,0,.15.05.27.16.36s.24.14.42.14c.24,0,.44-.08.59-.25.16-.17.23-.38.23-.63v-.3Z" style="fill: #253e56;"/>
                  <path d="m417.55,65h-.48v-1.71c0-.64-.23-.96-.7-.96-.24,0-.44.09-.6.27s-.24.41-.24.68v1.71h-.48v-3h.48v.5h.01c.23-.38.55-.57.98-.57.33,0,.58.11.75.32s.26.52.26.92v1.83Z" style="fill: #253e56;"/>
                  <path d="m418.89,64.33l-.47,1.44h-.34l.34-1.44h.47Z" style="fill: #253e56;"/>
                  <path d="m424.47,65h-.59l-.7-1.18c-.06-.11-.13-.2-.19-.28s-.12-.14-.19-.19-.13-.08-.21-.11c-.07-.02-.16-.03-.25-.03h-.4v1.79h-.49v-4.2h1.25c.18,0,.35.02.51.07.16.05.29.12.4.21s.2.21.27.35.1.3.1.49c0,.15-.02.28-.07.4-.04.12-.11.23-.19.33s-.18.18-.29.25c-.11.07-.24.12-.39.16h0c.07.04.13.08.18.12s.1.09.15.14.09.12.14.19.1.15.15.24l.79,1.26Zm-2.52-3.76v1.52h.67c.12,0,.24-.02.34-.06s.19-.09.27-.16.14-.15.18-.26c.04-.1.06-.21.06-.34,0-.22-.07-.4-.22-.53-.15-.13-.36-.19-.63-.19h-.67Z" style="fill: #253e56;"/>
                  <path d="m425.15,65.06c-.09,0-.17-.03-.23-.1s-.1-.14-.1-.23.03-.17.1-.23.14-.1.23-.1.17.03.23.1.1.14.1.23-.03.17-.1.23-.14.1-.23.1Z" style="fill: #253e56;"/>
                  <path d="m428.05,65.07c-.6,0-1.07-.2-1.43-.59s-.54-.9-.54-1.53c0-.68.18-1.21.55-1.62s.86-.6,1.49-.6c.58,0,1.05.2,1.4.59s.53.9.53,1.53c0,.69-.18,1.23-.54,1.63s-.85.6-1.46.6Zm.04-3.9c-.44,0-.8.16-1.08.48s-.41.74-.41,1.25.13.93.4,1.25c.27.32.62.47,1.05.47.46,0,.82-.15,1.09-.45s.4-.72.4-1.26-.13-.98-.39-1.29-.61-.45-1.07-.45Z" style="fill: #253e56;"/>
                  <path d="m430.98,65.06c-.09,0-.17-.03-.23-.1s-.1-.14-.1-.23.03-.17.1-.23.14-.1.23-.1.17.03.23.1.1.14.1.23-.03.17-.1.23-.14.1-.23.1Z" style="fill: #253e56;"/>
                  <path d="m435.04,64.82c-.31.16-.7.25-1.16.25-.6,0-1.08-.19-1.44-.58s-.54-.89-.54-1.51c0-.67.2-1.21.61-1.63s.92-.62,1.54-.62c.4,0,.73.06.99.17v.52c-.3-.17-.63-.25-1-.25-.48,0-.87.16-1.17.48s-.45.75-.45,1.29.14.92.42,1.22c.28.3.65.46,1.1.46.42,0,.79-.09,1.1-.28v.48Z" style="fill: #253e56;"/>
                  <path d="m435.99,65.06c-.09,0-.17-.03-.23-.1s-.1-.14-.1-.23.03-.17.1-.23.14-.1.23-.1.17.03.23.1.1.14.1.23-.03.17-.1.23-.14.1-.23.1Z" style="fill: #253e56;"/>
                </g>
                <g style="isolation: isolate;">
                  <path d="m272.75,71.96h-.43c-.61-.69-.91-1.54-.91-2.56s.3-1.88.91-2.6h.43c-.61.74-.92,1.61-.92,2.59s.3,1.83.91,2.56Z" style="fill: #253e56;"/>
                  <path d="m275.85,67.24h-1.21v3.76h-.49v-3.76h-1.21v-.45h2.92v.45Z" style="fill: #253e56;"/>
                  <path d="m277.91,71h-.48v-.47h-.01c-.21.36-.52.54-.92.54-.3,0-.53-.08-.7-.24s-.25-.37-.25-.63c0-.56.33-.89.99-.98l.9-.13c0-.51-.21-.76-.62-.76-.36,0-.69.12-.98.37v-.49c.29-.19.63-.28,1.02-.28.71,0,1.06.37,1.06,1.12v1.95Zm-.48-1.52l-.72.1c-.22.03-.39.09-.5.17-.11.08-.17.22-.17.42,0,.15.05.27.16.36s.24.14.42.14c.24,0,.44-.08.59-.25.16-.17.23-.38.23-.63v-.3Z" style="fill: #253e56;"/>
                  <path d="m279.07,67.24c-.09,0-.16-.03-.22-.09s-.09-.13-.09-.22.03-.16.09-.22c.06-.06.13-.09.22-.09s.16.03.22.09c.06.06.09.13.09.22s-.03.16-.09.22-.14.09-.22.09Zm.23,3.76h-.48v-3h.48v3Z" style="fill: #253e56;"/>
                  <path d="m284.05,68l-.9,3h-.5l-.62-2.15c-.02-.08-.04-.17-.05-.28h-.01c0,.07-.03.16-.06.27l-.67,2.15h-.48l-.91-3h.5l.62,2.26c.02.07.03.16.04.27h.02c0-.09.02-.18.05-.28l.69-2.25h.44l.62,2.26c.02.07.03.16.04.27h.02c0-.08.02-.17.05-.27l.61-2.26h.47Z" style="fill: #253e56;"/>
                  <path d="m286.76,71h-.48v-.47h-.01c-.21.36-.52.54-.92.54-.3,0-.53-.08-.7-.24s-.25-.37-.25-.63c0-.56.33-.89.99-.98l.9-.13c0-.51-.21-.76-.62-.76-.36,0-.69.12-.98.37v-.49c.29-.19.63-.28,1.02-.28.71,0,1.06.37,1.06,1.12v1.95Zm-.48-1.52l-.72.1c-.22.03-.39.09-.5.17-.11.08-.17.22-.17.42,0,.15.05.27.16.36s.24.14.42.14c.24,0,.44-.08.59-.25.16-.17.23-.38.23-.63v-.3Z" style="fill: #253e56;"/>
                  <path d="m290.15,71h-.48v-1.71c0-.64-.23-.96-.7-.96-.24,0-.44.09-.6.27s-.24.41-.24.68v1.71h-.48v-3h.48v.5h.01c.23-.38.55-.57.98-.57.33,0,.58.11.75.32s.26.52.26.92v1.83Z" style="fill: #253e56;"/>
                  <path d="m291.07,71.96h-.43c.61-.73.91-1.58.91-2.56s-.31-1.85-.92-2.59h.43c.61.71.91,1.58.91,2.6s-.3,1.87-.91,2.56Z" style="fill: #253e56;"/>
                </g>
              </g>
            </g>
          </g>
          <line id="_直线_23" data-name="直线 23" x1="452.11" y1="36.15" x2="452.11" y2="75.12" style="fill: none; stroke: #253e56;"/>
          <g id="_金屬及化學品資源循環整合平台_" data-name="金屬及化學品資源循環整合平台 " style="isolation: isolate;">
            <g style="isolation: isolate;">
              <path d="m479.67,51.5v3.02h8.37v2.1h-8.37v5.57h9.57v2.12h-21.44v-2.12h9.4v-5.57h-8.25v-2.1h8.25v-3.02h-5.22v-1.3c-1.17.6-2.38,1.15-3.62,1.6-.33-.67-.98-1.57-1.55-2.15,4.65-1.42,9.17-4.17,11.55-7.85l2.17.98c-.23.32-.42.65-.65.95,2.45,2.45,6.65,4.82,10.4,5.92-.52.5-1.25,1.42-1.6,2.02-1.22-.42-2.47-1.02-3.72-1.7v1.52h-5.27Zm-6.92,5.37c.95,1.32,1.95,3.15,2.35,4.32l-2.02.88c-.35-1.17-1.33-3.05-2.22-4.45l1.9-.75Zm11.07-7.52c-1.95-1.17-3.8-2.55-5.3-4.05-1.45,1.57-3.15,2.92-5.02,4.05h10.32Zm-2.25,12c.85-1.2,1.9-3.1,2.42-4.47l2.25.82c-.95,1.58-2.05,3.27-2.9,4.4l-1.77-.75Z" style="fill: #436fb1;"/>
              <path d="m512.82,56.13s-.03.55-.05.8c-.23,4.75-.48,6.52-1.03,7.15-.38.47-.8.65-1.37.7-.48.08-1.3.08-2.12.03-.02-.28-.08-.6-.17-.9l-.55.25c-.1-.17-.25-.4-.42-.65-3.95.33-8.02.62-10.97.8l-.17-1.58c1.62-.07,3.72-.17,5.97-.3v-1.02h-4.52v-2.25c-.4.27-.77.55-1.22.77-.32-.4-.95-1.02-1.4-1.3-.38,2.27-.97,4.47-1.92,6.27-.42-.38-1.45-.92-2-1.12,2.07-3.92,2.25-9.52,2.25-13.45v-7.37h19.27v4.57h-1.65l.65,1.08c-1.25.5-3.05.85-4.27,1l-.5-1c1.1-.2,2.8-.75,3.87-1.08h-15.12v2.77c0,2.35-.1,5.35-.58,8.27,1.82-.95,3.22-2.12,4.15-3.3h-2.47v-3.38h15.55v3.38h-10.7c-.2.3-.4.57-.62.85h12.15Zm-17.47-11.6v1.42h14.77v-1.42h-14.77Zm1.25,5.97c1.15-.17,2.8-.45,4.52-.77-1.05-.38-2.65-.75-4.12-.95l.4-1.1c1.58.17,3.27.52,4.32.88l-.45,1.15,1-.2.03,1.25c-1.85.4-3.85.85-5.3,1.12l-.4-1.38Zm1.72,3.7h2.62v-1.25h-2.62v1.25Zm1.12,3.3c-.3.3-.62.58-.97.85h3.45v-.85h-2.47Zm2.47,2.88v-1h-2.77v1h2.77Zm.83-6.17h2.72v-1.25h-2.72v1.25Zm.37-2.67v-3.62h2.15v3.62h-2.15Zm4.2,9.87c.58.58,1.17,1.22,1.55,1.8h.45c.27,0,.45-.05.62-.28.27-.4.52-1.8.72-5.42h-6.77v.85h4.52v3.05h-1.1Zm-.7-2.02h-2.72v1h2.72v-1Zm-.6,2.8c-.17-.17-.35-.35-.5-.5l.6-.28h-2.22v.9l2.12-.12Zm.6-12.45c1.75.17,3.65.52,4.8.92l-.45,1.22c-1.15-.4-3.05-.85-4.7-1.08l.35-1.07Zm.65,4.47h2.8v-1.25h-2.8v1.25Z" style="fill: #436fb1;"/>
              <path d="m536.59,50.78c-1.02,3.97-2.82,7-5.22,9.3,1.83,1.22,3.97,2.17,6.45,2.72-.55.53-1.25,1.55-1.6,2.22-2.65-.75-4.9-1.87-6.8-3.35-2.22,1.62-4.82,2.75-7.65,3.57-.27-.67-.9-1.67-1.35-2.17,2.62-.6,5.07-1.62,7.17-3.07-1.95-2.08-3.45-4.6-4.52-7.6h-.7c-.53,4.05-2.02,8.52-6.02,12.17-.35-.6-1.17-1.55-1.67-1.97,5.12-4.65,5.57-10.85,5.57-15.1v-2.1h-4.2v-2.25h15.5c-.48,2.27-1.05,5-1.58,7.05h4.5l.45-.12,1.67.7Zm-13.95-3.25c0,.85-.02,1.75-.08,2.67h4.82c.42-1.42.83-3.15,1.2-4.8h-5.95v2.12Zm2.67,4.87c.95,2.35,2.32,4.4,4.1,6.1,1.75-1.65,3.15-3.65,4.05-6.1h-8.15Z" style="fill: #436fb1;"/>
              <path d="m547.27,42.85c-.67,1.6-1.52,3.2-2.45,4.72v17.37h-2.2v-14.17c-.95,1.25-1.95,2.37-2.97,3.32-.2-.55-.85-1.8-1.27-2.35,2.65-2.27,5.22-5.9,6.77-9.6l2.12.7Zm10.22,19.3c1.35,0,1.57-1.05,1.77-5.25.55.42,1.5.88,2.1,1.02-.33,4.67-.9,6.32-3.72,6.32h-4.47c-2.75,0-3.52-.83-3.52-3.82v-17.97h2.22v6.6h8.8v2.22h-8.8v9.2c0,1.4.25,1.67,1.5,1.67h4.12Z" style="fill: #436fb1;"/>
              <path d="m585.12,60.25h-9.72v2.4c0,1.1-.25,1.65-1.12,1.95-.9.33-2.17.33-4.12.33-.12-.6-.45-1.42-.75-1.97,1.38.05,2.82.05,3.2.05.4,0,.53-.1.53-.42v-2.32h-10.25v-1.9h10.25v-.9c1.1-.45,2.32-1.05,3.37-1.7h-8.95v-1.7h11.32l.5-.12,1.33,1.2c-1.45,1.12-3.4,2.2-5.3,3.02v.2h9.72v1.9Zm-19.54-4.57h-2.2v-4.77h1.9l-.45-7.4c1.45-.25,3.6-.88,4.9-1.27l1,1.37c-1.08.4-2.42.75-3.67.97l.07,1h3.42v1.5h-3.35l.08,1.15h3.37v1.47c.7-.33,1.45-.72,2.1-1.17-.53-.33-1.1-.65-1.62-.9l1.12-.97c.55.27,1.17.6,1.75.95.45-.4.82-.8,1.12-1.22l1.58.5c-.4.53-.85,1.02-1.38,1.52.67.45,1.22.88,1.65,1.28l-1.17,1.07c-.4-.4-.97-.85-1.67-1.32-.73.57-1.53,1.05-2.25,1.47h8.72c.03-.38.08-.75.12-1.15h-3.32v-1.52h3.42l.1-1.15h-3.4v-1.5h3.5l.05-1.12h-3.67v-1.52h5.95c-.12,2.52-.35,5.72-.55,7.97h1.9v4.77h-2.3v-3.02h-16.82v3.02Zm1.87-4.77h4.27c-.25-.33-.83-.9-1.17-1.15h-3.15l.05,1.15Zm8.27-4.6c-.38-.38-.92-.77-1.55-1.17-.7.53-1.45,1.03-2.15,1.38-.28-.25-.88-.82-1.28-1.07.7-.3,1.42-.7,2.05-1.15-.5-.3-1.05-.6-1.57-.82l1.12-.97c.53.25,1.12.55,1.67.87.42-.35.78-.75,1.05-1.1l1.58.42c-.38.5-.8,1-1.3,1.47.6.38,1.12.75,1.52,1.1l-1.15,1.05Z" style="fill: #436fb1;"/>
              <path d="m587.45,54.03h9.05v10.77h-2.3v-1.12h-4.55v1.3h-2.2v-10.95Zm2.2,2.22v5.2h4.55v-5.2h-4.55Zm15.3-4.65h-13.97v-8.52h13.97v8.52Zm-2.38-6.3h-9.37v4.07h9.37v-4.07Zm5.87,8.72v10.82h-2.32v-1.17h-4.95v1.3h-2.22v-10.95h9.5Zm-2.32,7.42v-5.2h-4.95v5.2h4.95Z" style="fill: #436fb1;"/>
              <path d="m625.9,45.78c0,.17,0,.38-.05.6,1.35,1.38,4.02,2.22,7.32,2.42-.45.47-1.02,1.3-1.25,1.9-2.85-.4-5.12-1.3-6.7-2.75-.9,1.15-2.87,2.22-7.17,2.82-.23-.53-.75-1.3-1.17-1.72h-6.35v-1.83h7.25v1.65c5.42-.7,6-2.1,6-3.17v-.33h-2.08c-.55.9-1.17,1.7-1.82,2.33-.38-.33-1.22-.92-1.75-1.17,1.3-1.12,2.32-2.85,2.87-4.6l2.07.45c-.15.42-.3.83-.47,1.25h7.8l.33-.1,1.6.53c-.62,1.32-1.47,2.77-2.17,3.7l-1.82-.65c.33-.45.7-1.1,1.05-1.72h-3.47v.4Zm-.2,15.15c2.58.85,5.35,1.9,7.05,2.72l-2.1,1.28c-1.52-.83-4.15-1.95-6.72-2.82l1.45-1.17h-7.47l2.07.95c-2.02,1.22-5.15,2.42-7.65,3.12-.4-.48-1.22-1.33-1.72-1.75,2.55-.5,5.47-1.35,7.2-2.32h-4.02v-10.05h16.3v10.05h-4.37Zm-8.52-15.77h-6.12v-1.75h6.12v1.75Zm-1.15,8.62h11.72v-1.42h-11.72v1.42Zm0,2.8h11.72v-1.4h-11.72v1.4Zm0,2.88h11.72v-1.45h-11.72v1.45Z" style="fill: #436fb1;"/>
              <path d="m638.2,53.18c-.92-.67-2.77-1.83-4.12-2.6l1.35-1.65c1.3.67,3.17,1.72,4.17,2.4l-1.4,1.85Zm1.83,3.47c-.98,2.62-2.25,5.62-3.4,8l-2.1-1.27c1.05-1.95,2.55-5.15,3.65-8.02l1.85,1.3Zm-.65-10c-.92-.73-2.77-1.9-4.1-2.72l1.37-1.65c1.28.72,3.17,1.82,4.15,2.52l-1.42,1.85Zm4.42,3.45c0,4.35-.45,10.67-3.37,14.8-.4-.38-1.4-.97-1.95-1.22,2.8-3.9,3.05-9.52,3.05-13.57v-6.82h15.3v2.1h-13.02v4.72Zm3.95,8.35c-.8,1.8-2,3.82-3.02,5.07-.42-.3-1.32-.85-1.85-1.12,1.08-1.17,2.15-2.92,2.8-4.52l2.07.58Zm3.67-1.8v6.02c0,1.05-.17,1.62-.92,1.92-.72.35-1.82.38-3.45.35-.07-.57-.37-1.42-.6-2,1.05.05,2.08.02,2.38.02s.4-.1.4-.38v-5.95h-4.22v-8.75h3.57c.25-.77.52-1.7.67-2.37l2.6.47c-.32.67-.67,1.3-.97,1.9h5.12v8.75h-4.57Zm-4.35-5.2h6.75v-1.8h-6.75v1.8Zm0,3.47h6.75v-1.82h-6.75v1.82Zm7.6,2.72c.92,1.5,2.1,3.52,2.65,4.75l-2.12.92c-.52-1.25-1.62-3.35-2.52-4.92l2-.75Z" style="fill: #436fb1;"/>
              <path d="m664.67,48.23c-.5.92-1.1,1.9-1.77,2.82v13.92h-2.1v-11.27c-.65.75-1.32,1.42-1.95,2-.17-.5-.8-1.67-1.15-2.25,1.83-1.5,3.75-3.77,4.97-6.02l2,.8Zm-.5-5.42c-1.27,2.08-3.25,4.37-5.07,5.82-.25-.45-.83-1.35-1.2-1.75,1.58-1.25,3.3-3.25,4.17-4.85l2.1.77Zm11.2,6.92v2.37h4.2v12.82h-2.27v-1.08h-6.07v1.08h-2.17v-12.82h4.07v-2.37h-4.85v2.37c0,4.15-.33,9.2-2.62,12.87-.35-.33-1.2-.8-1.72-1.02,2.05-3.4,2.3-8.17,2.3-11.85v-8.07c4.12-.38,9-1,11.85-1.7l1.77,1.65c-3.2.75-7.62,1.3-11.57,1.62v2.25h4.85v-2.35h2.25v2.35h5.4v1.88h-5.4Zm1.92,4.2h-6.07v1.65h6.07v-1.65Zm0,3.25h-6.07v1.6h6.07v-1.6Zm0,4.9v-1.7h-6.07v1.7h6.07Z" style="fill: #436fb1;"/>
              <path d="m704.32,59.23c-1.03.58-2.2,1.2-3.25,1.67,1.07.95,2.42,1.62,3.95,2.05-.47.4-1.1,1.22-1.37,1.77-3.4-1.12-5.67-3.57-6.95-6.85-.8.7-1.72,1.4-2.75,1.97v2.55l3.85-.83c-.05.5-.05,1.3-.03,1.7-4.62,1.12-5.37,1.37-5.82,1.65v-.03c-.12-.45-.5-1.25-.78-1.62.35-.18.9-.6.9-1.6v-.83c-.8.4-1.65.72-2.42.97-.25-.42-.7-1.02-1.1-1.42-2.27.7-4.57,1.38-6.47,1.9l-.45-2.12c.8-.17,1.7-.42,2.7-.7v-6.62h-2.17v-2.02h2.17v-5.15h-2.38v-2.08h6.67v2.08h-2.27v5.15h2v2.02h-2v6.07c.7-.2,1.42-.42,2.12-.62l.25,1.8c1.92-.52,4.05-1.42,5.65-2.47h-3.37v-5.27h12.02v5.27h-4.4c.35.75.8,1.45,1.3,2.08,1.03-.58,2.15-1.33,2.85-1.88l1.55,1.4Zm.15-8.02h-15.02v-1.85h15.02v1.85Zm-.8-2.92h-13.25v-5.4h13.25v5.4Zm-9.35-3.75h-1.97v2.12h1.97v-2.12Zm-1.25,11.42h7.75v-1.92h-7.75v1.92Zm4.9-11.42h-2.05v2.12h2.05v-2.12Zm3.7,0h-2.1v2.12h2.1v-2.12Z" style="fill: #436fb1;"/>
              <path d="m710.97,52.2c-1.12,1.17-2.55,2.25-3.85,2.85-.3-.45-.9-1.12-1.32-1.47,1.57-.58,3.27-1.72,4.42-2.9h-3.3v-4.47h4.05v-1.08h-4.7v-1.7h4.7v-1.4h2.05v1.4h4.55v1.7h-4.55v1.08h4.02v1.9c1.6-1.42,2.8-3.65,3.45-6.07l2.07.5c-.2.72-.45,1.47-.75,2.17h6.62v1.88h-1.62c-.55,1.82-1.32,3.32-2.37,4.57,1.17.92,2.62,1.72,4.32,2.22-.4.4-1.02,1.28-1.3,1.8-1.72-.6-3.2-1.52-4.42-2.65-1.27,1.12-2.85,1.95-4.62,2.6-.25-.42-.9-1.3-1.33-1.67,1.8-.55,3.35-1.3,4.57-2.32-.75-.92-1.38-1.9-1.85-2.85-.42.55-.85,1.05-1.3,1.5-.3-.4-1-1.17-1.47-1.55v2.45h-3c1.07.53,2.35,1.33,2.97,1.9l-.97,1.33c-.65-.62-1.92-1.45-3.02-2.05v2.9h-2.05v-2.55Zm7.37,10.17h10.17v1.95h-22.52v-1.95h3.92v-3.95h2.2v3.95h3.92v-5.07h-8.45v-1.92h19.35v1.92h-8.6v1.6h6.8v1.77h-6.8v1.7Zm-9.6-13.15h2.22v-1.58h-2.22v1.58Zm4.27-1.58v1.58h2.1v-1.58h-2.1Zm.75,3.02h-.75v.88l.75-.88Zm7.17-4.1c.47,1.07,1.15,2.15,2.02,3.17.72-.92,1.27-1.95,1.65-3.17h-3.67Z" style="fill: #436fb1;"/>
              <path d="m743.5,43c-.25.38-.5.75-.8,1.12,3.05,3,6.45,4.9,10.15,6.37-.62.55-1.3,1.4-1.62,2.12-1.33-.62-2.6-1.3-3.85-2.05v1.65h-12.45v-1.25c-1.17.7-2.37,1.38-3.6,1.92-.4-.65-1.05-1.52-1.7-2.1,4.65-1.82,9.25-5,11.82-8.85l2.05,1.05Zm-10,11.82h15.62v10h-2.45v-1.15h-10.82v1.25h-2.35v-10.1Zm2.35,2.07v4.62h10.82v-4.62h-10.82Zm10.75-6.82c-1.83-1.17-3.55-2.55-5.32-4.3-1.45,1.6-3.15,3.05-4.95,4.3h10.27Z" style="fill: #436fb1;"/>
              <path d="m776.2,56.48h-10.02v8.5h-2.4v-8.5h-9.9v-2.35h9.9v-8.2h-8.6v-2.27h19.6v2.27h-8.6v8.2h10.02v2.35Zm-17.3-9.52c.92,1.72,1.87,3.95,2.2,5.4l-2.22.75c-.33-1.42-1.17-3.75-2.07-5.5l2.1-.65Zm9.67,5.52c.85-1.5,1.9-3.87,2.45-5.62l2.47.67c-.9,1.95-2,4.2-2.92,5.6l-2-.65Z" style="fill: #436fb1;"/>
              <path d="m792.95,44.6c2.35,2.12,5.27,5.2,6.57,7.25l-1.95,1.45c-.38-.62-.88-1.33-1.45-2.05-13.75.72-15.35.77-16.47,1.17-.1-.47-.5-1.62-.75-2.27.6-.1,1.22-.62,2.05-1.42.87-.83,3.7-3.9,5.52-6.92l2.32,1c-1.8,2.52-3.92,4.95-5.97,6.9l11.62-.47c-1.07-1.2-2.22-2.4-3.3-3.4l1.8-1.22Zm-12.17,9.72h16.2v10.6h-2.47v-1.28h-11.37v1.33h-2.35v-10.65Zm2.35,2.22v4.85h11.37v-4.85h-11.37Z" style="fill: #436fb1;"/>
            </g>
          </g>
        </g>
        <g id="_最新消息_專題區_資源地圖_租賃媒合專區_登入" data-name="最新消息 專題區 資源地圖 租賃媒合專區 登入" style="isolation: isolate;">
          <g style="isolation: isolate;">
            <path d="m1301.43,74.23v7.49h-1.15v-1.63c-1.97.22-3.92.46-5.38.62l-.13-1.04c.45-.03.96-.08,1.52-.14v-5.3h-1.33v-.99h14.02v.99h-7.56Zm-3.57-1.63h-1.14v-4.87h10.61v4.87h-1.18v-3.97h-8.29v3.97Zm2.42,1.63h-2.88v1.04h2.88v-1.04Zm0,1.92h-2.88v1.07h2.88v-1.07Zm-2.88,3.28c.91-.1,1.89-.19,2.88-.3v-1.01h-2.88v1.31Zm8.05-9.04h-6.88v-.8h6.88v.8Zm-6.88.98h6.85v.8h-6.85v-.8Zm9.89,4.11c-.5,1.54-1.33,2.8-2.35,3.79.9.69,1.97,1.2,3.19,1.5-.24.22-.56.66-.7.93-1.26-.37-2.37-.94-3.3-1.71-.96.74-2.05,1.3-3.17,1.68-.14-.26-.43-.71-.66-.91,1.06-.32,2.1-.83,3.03-1.52-.77-.82-1.38-1.78-1.81-2.87l.69-.21h-1.5v-.94h5.67l.21-.03.72.29Zm-4.79.69c.37.9.93,1.71,1.62,2.4.7-.69,1.31-1.49,1.73-2.4h-3.35Z" style="fill: #253e56;"/>
            <path d="m1313.25,77.23c-.38,1.14-1.06,2.39-1.65,3.19-.19-.14-.59-.45-.83-.58.62-.75,1.18-1.84,1.5-2.88l.98.27Zm1.97-1.12v5.55h-1.17v-5.55h-3.19v-1.02h3.19v-1.68h-3.27v-1.01h4.42c.3-.74.67-1.79.86-2.53l1.09.22c-.29.77-.59,1.63-.9,2.3h2.03v1.01h-3.07v1.68h2.9v1.02h-2.9Zm2.83-6.34h-7.01v-.99h3.14c-.21-.48-.48-1.02-.7-1.46l1.15-.3c.34.54.69,1.23.91,1.76h2.51v.99Zm-5.36,2.56c-.08-.59-.34-1.52-.61-2.23l.94-.22c.32.69.59,1.58.66,2.18l-.99.27Zm4.07,4.53c.51.78,1.07,1.83,1.34,2.51l-.85.48c-.26-.69-.83-1.79-1.31-2.56l.82-.43Zm8.52-3.28h-1.74v8.07h-1.15v-8.07h-2.19v.56c0,2.29-.21,5.43-1.66,7.51-.19-.22-.66-.59-.91-.72,1.34-1.92,1.47-4.66,1.47-6.79v-5.51c1.79-.29,3.83-.77,4.98-1.25l.94.88c-1.31.5-3.14.9-4.82,1.15v3.04h5.09v1.12Z" style="fill: #253e56;"/>
            <path d="m1329.57,74.26c-.64-.45-1.97-1.22-2.93-1.73l.64-.86c.94.46,2.27,1.17,2.95,1.62l-.66.98Zm-2.4,6.45c.85-1.22,2.11-3.31,3.03-5.12l.86.78c-.85,1.68-1.95,3.67-2.9,5.14l-.99-.8Zm1.02-13.38c.94.53,2.24,1.28,2.91,1.74l-.72.94c-.64-.48-1.92-1.3-2.88-1.87l.69-.82Zm12.15,12.9c0,.67-.14,1.02-.62,1.22-.48.19-1.28.19-2.5.19-.03-.32-.21-.8-.37-1.14.91.05,1.74.05,1.98.03.26-.02.34-.08.34-.32v-2.99c-1.9.5-3.89.98-5.39,1.33l-.4-1.02c1.47-.3,3.67-.78,5.79-1.3v-3.49h-6v3.31c0,1.76-.16,4.13-1.1,5.75-.19-.21-.66-.58-.91-.71.82-1.46.9-3.46.9-5.04v-4.4h3.6v-4.55h1.17v4.55h3.52v8.58Zm-7.11-9.14c-.24-.82-.93-2.08-1.6-2.99l.99-.46c.7.9,1.42,2.11,1.68,2.93l-1.07.53Zm.88,2.71c1.42.27,3.2.85,4.15,1.33l-.46.86c-.93-.51-2.71-1.12-4.15-1.42l.46-.77Zm6.79-5.78c-.54,1.04-1.23,2.21-1.81,2.99l-1.02-.43c.58-.82,1.31-2.1,1.7-3.03l1.14.46Z" style="fill: #253e56;"/>
            <path d="m1342.79,80.45c.62-.88,1.25-2.24,1.63-3.23l1.02.45c-.43.98-.99,2.38-1.57,3.3l-1.09-.51Zm6.79-4.29h-4.43v-7.57h3.71c.24-.51.48-1.18.61-1.65l1.38.24c-.22.5-.5,1.01-.75,1.41h4.77v7.57h-5.19c.82.7,1.73,1.73,2.15,2.4l-.96.59c-.4-.7-1.31-1.76-2.13-2.51l.85-.48Zm2.56,4.18c.85,0,.99-.24,1.07-1.86.27.21.77.38,1.1.45-.16,2.03-.54,2.51-2.1,2.51h-3.65c-1.86,0-2.34-.34-2.34-1.6v-2.61h1.18v2.59c0,.43.18.51,1.22.51h3.51Zm-5.84-9.52h7.38v-1.28h-7.38v1.28Zm0,2.19h7.38v-1.28h-7.38v1.28Zm0,2.19h7.38v-1.28h-7.38v1.28Zm8.95,1.76c.75.96,1.54,2.29,1.82,3.17l-1.1.51c-.27-.88-1.04-2.24-1.78-3.23l1.06-.45Z" style="fill: #253e56;"/>
            <path d="m1412.65,78.16h-3.81v2.29c0,.61-.13.93-.64,1.09-.5.18-1.3.18-2.58.18-.05-.3-.22-.74-.38-1.02.98.03,1.87.03,2.13.02.24-.02.32-.08.32-.29v-2.26h-6.07c.94.54,2.06,1.38,2.62,1.97l-.85.78c-.56-.62-1.68-1.49-2.64-2.08l.78-.67h-3.31v-.98h9.46v-.99c-3.28.1-6.48.16-8.79.19l-.05-.93c1.58,0,3.68-.02,5.97-.05v-.88h-4.9v-4.34h4.9v-.9h-6.13v-.96h6.13v-1.2h1.15v1.2h6.03v.96h-6.03v.9h5.06v4.34h-1.86c1.09.43,2.23,1.06,2.87,1.55l-.7.67c-.24-.19-.56-.42-.91-.64l-1.58.05v1.02h3.81v.98Zm-11.6-6.19h3.78v-.96h-3.78v.96Zm3.78,1.76v-.99h-3.78v.99h3.78Zm1.15-2.72v.96h3.89v-.96h-3.89Zm3.89,1.73h-3.89v.99h3.89v-.99Zm-3.89,2.67l3.03-.05c-.42-.19-.83-.37-1.22-.5l.38-.34h-2.19v.88Z" style="fill: #253e56;"/>
            <path d="m1418.4,79.73c1.26.54,2.9.64,4.87.66.7,0,4.64,0,5.57-.03-.18.26-.37.71-.43,1.02h-5.14c-3.46,0-5.84-.38-7.28-2.53-.22,1.15-.61,2.18-1.22,2.91-.14-.22-.5-.59-.75-.77.96-1.15,1.23-3.3,1.31-5.25h.99c-.03.61-.06,1.23-.13,1.83.3.66.7,1.17,1.18,1.55v-4.26h-3.17v-.93h7.17v.93h-2.98v1.71h2.71v.91h-2.71v2.24Zm2.03-6.96h-5.28v-4.99h5.28v4.99Zm-1.09-4.11h-3.12v1.18h3.12v-1.18Zm0,2.02h-3.12v1.22h3.12v-1.22Zm4.87,6.96c-.69.88-1.82,1.78-2.83,2.35-.18-.19-.56-.59-.8-.75,1.01-.46,2.03-1.18,2.64-1.92l.99.32Zm-.3-7.62c.13-.38.26-.82.35-1.22h-2.98v-.91h7.23v.91h-3.15c-.14.42-.3.85-.45,1.22h2.96v7.03h-5.99v-7.03h2.02Zm2.87.88h-3.81v1.2h3.81v-1.2Zm0,2.03h-3.81v1.18h3.81v-1.18Zm0,2.03h-3.81v1.2h3.81v-1.2Zm-.53,2.34c.93.56,1.97,1.44,2.5,2.05l-.86.56c-.53-.64-1.57-1.55-2.45-2.15l.82-.46Z" style="fill: #253e56;"/>
            <path d="m1441.77,79.88c.86,0,2.08-.06,2.66-.18.05.34.13.88.19,1.14-.42.13-1.63.14-2.86.14h-7.04c-2.45,0-3.63-.77-3.63-3.11v-8.96h-.66v-1.07h13.41v1.07h-11.59v9.04c0,1.36.62,1.92,2.34,1.92h7.19Zm-8.26-5.3h4.16v4.1h-4.16v-4.1Zm.99,3.23h2.13v-2.37h-2.13v2.37Zm6.67-4.32h-5.94v-3.54h5.94v3.54Zm-1.17-2.69h-3.65v1.83h3.65v-1.83Zm3.04,7.88h-4.31v-4.1h4.31v4.1Zm-1.06-3.23h-2.22v2.37h2.22v-2.37Z" style="fill: #253e56;"/>
            <path d="m1490.26,71.5h-4.58v-.96h4.58v.96Zm1.26,8.26c-1.28.77-3.3,1.52-4.88,1.95-.21-.24-.61-.69-.88-.9,1.63-.34,3.55-.91,4.69-1.54l1.07.48Zm-1.66-10.77h-3.83v-.93h3.83v.93Zm-2.08,3.76h10.36v6.42h-10.36v-6.42Zm1.15,1.89h8.02v-1.09h-8.02v1.09Zm0,1.86h8.02v-1.09h-8.02v1.09Zm0,1.89h8.02v-1.12h-8.02v1.12Zm3.84-9.27c-.35.61-.77,1.17-1.2,1.6-.19-.18-.64-.48-.9-.61.83-.75,1.49-1.87,1.84-3.04l1.07.24c-.1.3-.22.59-.34.88h5.36l.19-.05.8.27c-.4.82-.91,1.75-1.34,2.3l-.94-.34c.24-.34.53-.8.75-1.26h-2.54v.21c0,.16-.02.34-.05.53.85.96,2.59,1.58,4.69,1.76-.22.22-.53.66-.67.94-1.82-.26-3.36-.9-4.35-1.87-.53.78-1.79,1.52-4.61,1.95-.13-.26-.43-.69-.64-.88,4.15-.56,4.53-1.65,4.53-2.48v-.16h-1.65Zm2.4,10.15c1.71.53,3.59,1.22,4.71,1.73l-1.04.69c-1.02-.51-2.75-1.2-4.48-1.78l.82-.64Z" style="fill: #253e56;"/>
            <path d="m1504.19,74.11c-.61-.46-1.79-1.22-2.69-1.71l.69-.83c.86.48,2.08,1.15,2.71,1.58l-.7.96Zm1.01,2.26c-.66,1.68-1.55,3.65-2.3,5.12l-1.06-.66c.7-1.23,1.7-3.33,2.43-5.12l.93.66Zm-.26-6.43c-.61-.48-1.79-1.26-2.66-1.82l.69-.82c.86.5,2.06,1.23,2.67,1.7l-.7.94Zm2.5,2.32c0,2.79-.27,6.74-2.16,9.41-.19-.21-.7-.51-.98-.62,1.81-2.56,1.97-6.16,1.97-8.79v-4.37h9.73v1.09h-8.56v3.28Zm2.54,5.23c-.53,1.17-1.33,2.45-2.02,3.28-.22-.18-.67-.45-.96-.61.74-.77,1.44-1.91,1.9-2.96l1.07.29Zm2.37-1.18v4.18c0,.59-.1.9-.54,1.07-.43.18-1.1.18-2.18.16-.05-.3-.19-.72-.34-1.02.77.03,1.47.02,1.65.02.21-.02.27-.06.27-.24v-4.16h-2.87v-5.49h2.42c.18-.51.37-1.17.46-1.62l1.33.27c-.22.46-.45.93-.66,1.34h3.49v5.49h-3.04Zm-2.93-3.19h4.87v-1.39h-4.87v1.39Zm0,2.27h4.87v-1.41h-4.87v1.41Zm5.03,1.68c.62.98,1.42,2.29,1.82,3.06l-1.09.48c-.35-.8-1.14-2.13-1.76-3.14l1.02-.4Z" style="fill: #253e56;"/>
            <path d="m1520.77,76.55c.58-.26,1.17-.5,1.76-.75l.24,1.06c-1.68.78-3.47,1.58-4.87,2.21l-.46-1.18c.61-.21,1.38-.53,2.21-.88v-4.93h-1.9v-1.14h1.9v-3.63h1.12v3.63h1.71v1.14h-1.71v4.48Zm9.19,3.75c.93,0,1.09-.43,1.2-2.27.29.21.74.4,1.07.45-.19,2.19-.56,2.9-2.23,2.9h-3.94c-1.81,0-2.35-.43-2.35-2.16v-5.03l-1.26.53-.46-1.04,1.73-.72v-4.35h1.14v3.86l2.14-.9v-4.45h1.14v3.97l2.43-1.02.91.3-.06.19c-.16,2.26-.43,5.2-.83,7.01l-.98-.29c.27-1.46.48-3.83.61-5.84l-2.08.88v5.87h-1.14v-5.39l-2.14.91v5.52c0,.86.21,1.07,1.25,1.07h3.86Z" style="fill: #253e56;"/>
            <path d="m1547.51,67.76v13.94h-1.14v-.62h-11.04v.62h-1.1v-13.94h13.29Zm-1.14,12.29v-11.28h-11.04v11.28h11.04Zm-.72-7.33v.75h-9.57v-.75h4.21v-.72h-2.61v-2.48h6.32v2.48h-2.71v.72h4.35Zm-8.48,1.44h7.35v5.04h-7.35v-5.04Zm.93,4.29h5.44v-3.55h-5.44v3.55Zm.58-7.17h4.31v-1.06h-4.31v1.06Zm.45,4.31h3.39v2.18h-3.39v-2.18Zm.74,1.55h1.89v-.93h-1.89v.93Z" style="fill: #253e56;"/>
            <path d="m1594.28,76.72c-.29-.53-.96-1.63-1.5-2.45v7.43h-1.14v-7.03c-.64,1.6-1.44,3.17-2.23,4.15-.13-.34-.42-.8-.61-1.09.98-1.14,2.05-3.18,2.67-5.03h-2.48v-1.12h2.64v-2.38c-.72.14-1.44.24-2.11.34-.06-.24-.22-.66-.35-.93,1.79-.27,3.89-.75,5.09-1.26l.7.94c-.62.26-1.38.46-2.19.66v2.64h2.19v1.12h-2.19v.27c.45.51,1.9,2.37,2.21,2.82l-.7.93Zm9.28,3.38v1.12h-9.27v-1.12h1.6v-12.08h6.18v12.08h1.49Zm-6.5-10.98v2.77h3.81v-2.77h-3.81Zm3.81,3.86h-3.81v2.96h3.81v-2.96Zm-3.81,7.12h3.81v-3.07h-3.81v3.07Z" style="fill: #253e56;"/>
            <path d="m1607.46,70.02c-.61.45-1.23.86-1.84,1.2-.18-.22-.61-.66-.88-.85,1.57-.77,3.27-1.97,4.24-3.27l1.09.42c-.42.53-.93,1.07-1.47,1.55v3.91h-1.14v-2.96Zm7.65,9.35c1.55.56,3.14,1.2,4.16,1.7l-1.07.67c-1.01-.54-2.72-1.28-4.43-1.9l.56-.46h-4.05l.71.32c-1.31.82-3.35,1.6-4.95,2.06-.19-.26-.62-.69-.86-.9,1.54-.34,3.28-.9,4.45-1.49h-2.38v-6h10.34v6h-2.47Zm-6.72-4.24h8v-.99h-8v.99Zm0,1.71h8v-.98h-8v.98Zm0,1.76h8v-1.01h-8v1.01Zm10.93-8.92v.9h-4.48v1.1h3.71v.88h-8.37v-.88h3.52v-1.1h-4.26v-.9h4.26v-.98h-3.52v-.88h8.37v.88h-3.71v.98h4.48Z" style="fill: #253e56;"/>
            <path d="m1625.73,80.45c-.38-.51-.94-1.15-1.57-1.81-.59,1.07-1.42,2.1-2.56,3.01-.16-.21-.53-.58-.78-.72,1.18-.94,2-1.99,2.58-3.06-.72-.7-1.49-1.39-2.18-1.98.32-1.09.66-2.59.94-4.16l-1.14.06-.13-1.1,1.46-.06c.18-1.2.34-2.4.43-3.46l1.04.05c-.1,1.04-.27,2.18-.46,3.34l1.36-.06v-1.12h1.01v1.07l.8-.05v1.04l-.8.06c-.02,1.81-.16,4-1.07,6.12.72.7,1.38,1.39,1.78,1.92l-.7.91Zm-2.56-8.79c-.27,1.39-.56,2.75-.83,3.87.48.4,1.01.86,1.52,1.33.74-1.84.85-3.73.86-5.3l-1.55.1Zm6.51,6.28c-.54,1.36-1.58,2.8-2.61,3.54-.18-.27-.54-.66-.8-.85,1.01-.61,2.02-1.82,2.53-2.99l.88.3Zm1.84-.82v4.61h-1.15v-4.61h-3.86v-1.02h3.86v-1.42h-2.46v-4.79h-1.42v-1.04h1.42v-1.73h1.09v1.73h3.79v-1.73h1.14v1.73h1.42v1.04h-1.42v4.79h-2.4v1.42h3.83v1.02h-3.83Zm-2.53-7.24v1.41h3.79v-1.41h-3.79Zm0,3.79h3.79v-1.46h-3.79v1.46Zm4.11,3.95c.85,1.02,1.91,2.43,2.4,3.3l-.93.45c-.48-.86-1.5-2.3-2.34-3.36l.86-.38Z" style="fill: #253e56;"/>
            <path d="m1645.57,67.58c-.16.26-.34.48-.51.72,1.87,1.99,4.1,3.3,6.64,4.37-.3.26-.64.7-.82,1.07-.91-.45-1.78-.9-2.59-1.42v1.09h-8.02v-.82c-.8.48-1.62.93-2.45,1.3-.21-.32-.53-.77-.86-1.04,3.03-1.2,5.95-3.31,7.57-5.78l1.04.51Zm-6.13,7.75h9.86v6.31h-1.23v-.83h-7.43v.9h-1.2v-6.37Zm1.2,1.06v3.31h7.43v-3.31h-7.43Zm7.62-4.08c-1.41-.86-2.69-1.87-3.89-3.15-1.04,1.2-2.31,2.26-3.67,3.15h7.56Z" style="fill: #253e56;"/>
            <path d="m1667.49,78.16h-3.81v2.29c0,.61-.13.93-.64,1.09-.5.18-1.3.18-2.58.18-.05-.3-.22-.74-.38-1.02.98.03,1.87.03,2.13.02.24-.02.32-.08.32-.29v-2.26h-6.07c.94.54,2.07,1.38,2.62,1.97l-.85.78c-.56-.62-1.68-1.49-2.64-2.08l.78-.67h-3.31v-.98h9.46v-.99c-3.28.1-6.48.16-8.79.19l-.05-.93c1.58,0,3.68-.02,5.97-.05v-.88h-4.9v-4.34h4.9v-.9h-6.13v-.96h6.13v-1.2h1.15v1.2h6.03v.96h-6.03v.9h5.06v4.34h-1.86c1.09.43,2.22,1.06,2.87,1.55l-.71.67c-.24-.19-.56-.42-.91-.64l-1.58.05v1.02h3.81v.98Zm-11.6-6.19h3.78v-.96h-3.78v.96Zm3.78,1.76v-.99h-3.78v.99h3.78Zm1.15-2.72v.96h3.89v-.96h-3.89Zm3.89,1.73h-3.89v.99h3.89v-.99Zm-3.89,2.67l3.02-.05c-.42-.19-.83-.37-1.22-.5l.38-.34h-2.19v.88Z" style="fill: #253e56;"/>
            <path d="m1680.61,79.88c.86,0,2.08-.06,2.66-.18.05.34.13.88.19,1.14-.42.13-1.63.14-2.87.14h-7.04c-2.45,0-3.63-.77-3.63-3.11v-8.96h-.66v-1.07h13.41v1.07h-11.59v9.04c0,1.36.62,1.92,2.34,1.92h7.19Zm-8.26-5.3h4.16v4.1h-4.16v-4.1Zm.99,3.23h2.13v-2.37h-2.13v2.37Zm6.67-4.32h-5.94v-3.54h5.94v3.54Zm-1.17-2.69h-3.65v1.83h3.65v-1.83Zm3.04,7.88h-4.31v-4.1h4.31v4.1Zm-1.06-3.23h-2.23v2.37h2.23v-2.37Z" style="fill: #253e56;"/>
            <path d="m1738.61,69.74c-.72.67-1.65,1.39-2.43,1.94.91.78,1.94,1.42,3.01,1.84-.27.22-.61.69-.82.99-1.39-.62-2.67-1.58-3.79-2.75v.82h-5.73v-.75c-1.18,1.22-2.58,2.19-3.94,2.83-.16-.27-.5-.67-.74-.9,1.09-.45,2.24-1.2,3.23-2.11-.5-.54-1.31-1.17-2.03-1.62l.64-.67c.74.43,1.58,1.06,2.1,1.6.62-.7,1.2-1.46,1.6-2.24h-4.35v-1.01h4.91l.22-.05.78.4c-.5,1.31-1.26,2.48-2.18,3.49h5.28c-1.1-1.2-2-2.58-2.66-4.08l1.04-.32c.29.67.67,1.34,1.1,1.99.72-.58,1.55-1.33,2.07-1.89l.91.64c-.74.69-1.65,1.42-2.43,1.97.32.42.69.83,1.07,1.22.78-.59,1.68-1.36,2.22-1.94l.9.61Zm-3.38,8.51c-.34.69-.74,1.44-1.07,2.05h4.55v1.04h-14v-1.04h4.39c-.14-.54-.51-1.38-.9-1.98l1.07-.34c.4.61.82,1.42.98,1.98l-.99.34h3.7c.42-.67.91-1.65,1.17-2.35l1.12.3Zm.9-.4h-9.06v-3.99h9.06v3.99Zm-1.25-2.99h-6.64v2h6.64v-2Z" style="fill: #253e56;"/>
            <path d="m1748.47,68.08c0,2.83.37,8.87,6.64,12.6-.27.19-.75.7-.96.99-3.94-2.39-5.63-5.89-6.35-8.92-1.18,4.15-3.2,7.06-6.39,8.93-.22-.24-.75-.74-1.07-.94,3.54-1.84,5.51-5.06,6.48-9.54l.7.11c-.11-.74-.18-1.44-.21-2.05h-3.94v-1.18h5.09Z" style="fill: #253e56;"/>
          </g>
        </g>
      </g>
      <g id="search">
        <path id="_矩形_10" data-name="矩形 10" d="m1498,15h167c8.28,0,15,6.72,15,15h0c0,8.28-6.72,15-15,15h-167c-8.28,0-15-6.72-15-15h0c0-8.28,6.72-15,15-15Z" style="fill: #e2eef1;"/>
        <path id="search-2" d="m1667.58,36.58l-3.6-3.6c2.16-3.27,1.27-7.67-2-9.84-3.27-2.16-7.67-1.27-9.84,2-2.16,3.27-1.27,7.67,2,9.84,2.38,1.57,5.46,1.57,7.84,0l3.6,3.6c.58.52,1.48.48,2-.1.49-.54.49-1.36,0-1.9Zm-14.46-7.5c0-2.74,2.22-4.96,4.96-4.96s4.96,2.22,4.96,4.96-2.22,4.96-4.96,4.96h0c-2.74,0-4.95-2.22-4.96-4.96h0Z" style="fill: #253e56;"/>
        <g id="_請輸入關鍵字" data-name="請輸入關鍵字" style="isolation: isolate;">
          <g style="isolation: isolate;">
            <path d="m1504,27.08c0,.09-.04.13-.12.13l-1.57-.03h-1.7l-1.57.03c-.08,0-.12-.04-.12-.13v-.62c0-.08.04-.12.12-.12l1.57.03h1.7l1.57-.03c.08,0,.12.04.12.12v.62Zm-.42,9.63c0,.08-.04.12-.12.12h-.62c-.08,0-.12-.04-.12-.12v-.5h-2.29v.75c0,.08-.04.12-.12.12h-.62c-.08,0-.12-.04-.12-.12l.03-2.19v-.92l-.03-1.3c0-.08.04-.12.12-.12l1.33.03h1.11l1.34-.03c.08,0,.12.04.12.12l-.03,1.07v.97l.03,2.12Zm.06-11.71c0,.08-.04.12-.12.12l-1.32-.03h-1.17l-1.32.03c-.08,0-.12-.04-.12-.12v-.6c0-.08.04-.12.12-.12l1.32.03h1.17l1.32-.03c.08,0,.12.04.12.12v.6Zm-.21,4.11c0,.08-.04.12-.13.12l-1.23-.03h-1l-1.25.03c-.08,0-.12-.04-.12-.12v-.59c0-.08.04-.12.12-.12l1.25.03h1l1.23-.03c.09,0,.13.04.13.12v.59Zm0,1.99c0,.08-.04.12-.13.12l-1.23-.03h-1l-1.25.03c-.08,0-.12-.04-.12-.12v-.59c0-.08.04-.12.12-.12l1.25.03h1l1.23-.03c.09,0,.13.04.13.12v.59Zm-.7,4.37v-2.29h-2.29v2.29h2.29Zm9.56-6.26c0,.07-.04.1-.11.1l-2.04-.03h-3.96l-2.04.03c-.08,0-.12-.03-.12-.1v-.54c0-.08.04-.12.12-.12l2.04.03h1.32v-1.06h-.76l-1.8.03c-.08,0-.12-.04-.12-.12v-.49c0-.08.04-.12.12-.12l1.8.03h.76v-1h-1l-1.92.03c-.08,0-.12-.04-.12-.12v-.53c0-.08.04-.12.12-.12l1.92.03h1c0-.68-.03-1.23-.1-1.65.43.01.75.04.96.07.12.01.18.06.18.13,0,.06-.03.16-.09.3-.06.15-.1.53-.1,1.14h1.35l1.93-.03c.08,0,.12.04.12.12v.53c0,.08-.04.12-.12.12l-1.93-.03h-1.35v1h.93l1.79-.03c.09,0,.13.04.13.12v.49c0,.08-.04.12-.13.12l-1.79-.03h-.93v1.06h1.79l2.04-.03c.07,0,.11.04.11.12v.54Zm-1.25,1.08l-.03,1.76v3.63c.01.5-.09.83-.3.99-.25.18-.69.27-1.31.27h-.18c-.15,0-.24-.02-.28-.04s-.07-.11-.11-.26c-.07-.21-.18-.41-.31-.59.35.03.69.04,1.02.04.29,0,.48-.05.56-.15.06-.07.09-.21.09-.4v-1.08h-4.37v.57l.03,1.92c0,.07-.04.1-.12.1h-.64c-.08,0-.12-.04-.12-.1l.03-1.89v-3.09l-.03-1.68c0-.08.04-.12.12-.12l1.77.03h2.31l1.76-.03c.08,0,.12.04.12.12Zm-.86,1.7v-1.07h-4.37v1.07h4.37Zm0,1.77v-1.07h-4.37v1.07h4.37Z" style="fill: #253e56;"/>
            <path d="m1519.2,25.97c0,.08-.04.12-.12.12l-1.82-.03h-.33v1.27h.12l1.61-.03c.08,0,.12.04.12.12l-.03,1.41v2.04l.03,1.41c0,.08-.04.12-.12.12l-1.61-.03h-.12v1.31h.27l1.82-.04c.08,0,.12.04.12.12v.57c0,.08-.04.12-.12.12l-1.82-.03h-.27l.03,2.5c0,.08-.04.12-.12.12h-.62c-.08,0-.12-.04-.12-.12l.03-2.5h-.5l-1.82.03c-.08,0-.12-.04-.12-.12v-.57c0-.08.04-.12.12-.12l1.82.04h.5v-1.31h-.07l-1.64.03c-.08,0-.12-.04-.12-.12l.03-1.41v-2.04l-.03-1.41c0-.08.04-.12.12-.12l1.64.03h.07v-1.27h-.41l-1.79.03c-.08,0-.12-.04-.12-.12v-.57c0-.08.04-.12.12-.12l1.79.03h.41c0-.8-.03-1.38-.1-1.76.37.01.66.04.88.07.12.01.18.06.18.14,0,0-.02.08-.07.24-.06.2-.1.62-.1,1.27v.03h.33l1.82-.03c.08,0,.12.04.12.12v.57Zm-3.04,3.49v-1.46h-1.08v1.46h1.08Zm0,2.23v-1.57h-1.08v1.57h1.08Zm1.88-2.23v-1.46h-1.11v1.46h1.11Zm0,2.23v-1.57h-1.11v1.57h1.11Zm9.73-4.07c-.17.15-.3.33-.4.54-.07.14-.13.21-.18.21-.03,0-.1-.03-.23-.1-1.56-.93-2.83-2.14-3.81-3.63-.88,1.49-2.05,2.75-3.51,3.78-.12.07-.2.1-.23.1-.04,0-.11-.07-.19-.21-.11-.18-.25-.32-.41-.44.83-.48,1.6-1.09,2.29-1.83.56-.6,1-1.21,1.32-1.82.17-.34.28-.6.31-.78.37.07.66.13.86.2.13.03.2.08.2.16s-.04.14-.13.18l-.07.04c.62.87,1.26,1.59,1.91,2.15.64.54,1.4,1.03,2.27,1.46Zm-4.83,2.01l-.03,1.86v4.21c.01.46-.08.78-.27.96-.17.16-.51.24-1,.24-.15,0-.24-.02-.27-.05-.03-.03-.06-.11-.09-.23-.05-.21-.13-.39-.24-.54.24.03.47.05.67.05.18,0,.3-.04.37-.12.05-.07.08-.21.08-.4v-1.46h-1.68v1.02l.04,1.76c0,.07-.04.1-.12.1h-.59c-.08,0-.12-.04-.12-.1l.03-1.74v-3.79l-.03-1.77c0-.08.04-.12.12-.12l1.07.03h.89l1.08-.03c.08,0,.12.04.12.12Zm-.79,1.89v-1.29h-1.68v1.29h1.68Zm0,1.98v-1.32h-1.68v1.32h1.68Zm3.19-5.35c0,.07-.04.11-.12.11l-1.33-.04h-1.3l-1.35.04c-.08,0-.12-.04-.12-.11v-.59c0-.08.04-.12.12-.12l1.35.03h1.3l1.33-.03c.08,0,.12.04.12.12v.59Zm-.45,1.63s-.01.07-.04.12c-.03.06-.05.1-.05.12-.03.12-.04.57-.04,1.35v1.56l.03,1.47c0,.08-.04.12-.13.12h-.61c-.08,0-.12-.04-.12-.12l.03-1.47v-1.54c0-.92-.03-1.52-.09-1.82.33.02.62.05.87.08.1.01.15.06.15.13Zm2.01-.29s-.03.13-.1.27c-.05.11-.07.53-.07,1.25v4.74c.01.45-.1.76-.34.94-.2.15-.64.23-1.33.23-.15,0-.23-.02-.26-.04-.03-.02-.06-.1-.1-.24-.05-.22-.13-.42-.24-.6.35.04.67.06.96.06.21,0,.35-.04.41-.13.06-.08.09-.23.09-.45v-4.48c0-.84-.03-1.43-.1-1.74.31.01.61.05.9.09.12.02.18.05.18.12Z" style="fill: #253e56;"/>
            <path d="m1542.22,35.9c-.2.15-.38.35-.54.6-.08.14-.15.21-.2.21-.04,0-.11-.04-.21-.1-1.65-1.15-2.93-2.48-3.85-4-.82-1.35-1.38-2.9-1.68-4.64-.29,1.94-1,3.7-2.15,5.29-.98,1.36-2.2,2.47-3.65,3.35-.14.07-.22.1-.24.1-.04,0-.11-.07-.21-.21-.15-.21-.34-.38-.57-.51,2.05-1.03,3.62-2.55,4.71-4.57.94-1.72,1.46-3.68,1.56-5.88h-2.13l-1.41.03c-.08,0-.12-.04-.12-.12v-.71c0-.08.04-.12.12-.12l1.41.03h1.52l1.41-.03c.09,0,.13.04.13.13,0,.56.04,1.17.13,1.83.53,4.11,2.52,7.21,5.96,9.32Z" style="fill: #253e56;"/>
            <path d="m1549.75,27.63c0,.08-.04.12-.12.12l-1.53-.03h-2.78v6.04l.03,3.18c0,.08-.04.12-.12.12h-.7c-.08,0-.12-.04-.12-.12l.03-3.18v-6.51l-.03-3.21c0-.08.04-.12.12-.12l1.71.03h1.85l1.53-.03c.08,0,.12.04.12.12l-.03,1.25v1.11l.03,1.23Zm-.87-2.13v-.9h-3.55v.9h3.55Zm0,1.59v-.96h-3.55v.96h3.55Zm1.57,5.06s.02.05.02.07c0,.03-.05.07-.14.11l-.29.12c-.06.03-.11.04-.13.04-.03,0-.07-.04-.1-.12l-.13-.37c-1.1.17-1.98.27-2.63.31-.27.02-.45.07-.52.12-.06.05-.12.07-.18.07-.05,0-.1-.05-.13-.16-.06-.19-.1-.4-.14-.63.28.02.47.02.55.02s.16,0,.23,0h.07c.21-.19.5-.47.87-.84-.38-.38-.89-.8-1.53-1.27-.04-.03-.06-.05-.06-.07,0-.02.03-.07.09-.14l.21-.23c.05-.06.1-.09.12-.09.02,0,.05.01.08.04l.42.31c.29-.31.54-.63.75-.96.12-.19.21-.37.27-.55.26.1.46.2.62.29.1.06.15.11.15.17,0,.05-.04.09-.12.13-.08.04-.18.15-.31.32-.27.36-.55.69-.86,1,.28.24.49.42.63.55.19-.2.39-.43.6-.72.18-.25.31-.46.37-.64.23.12.44.24.62.37.08.05.12.1.12.15,0,.06-.05.12-.15.16-.07.03-.22.18-.45.44-.59.65-1.1,1.16-1.55,1.53.55-.05,1.09-.11,1.62-.18-.05-.09-.13-.24-.26-.45-.02-.03-.03-.05-.03-.07,0-.02.05-.06.15-.11l.21-.09c.06-.03.1-.04.12-.04.03,0,.06.03.1.09.29.43.52.87.69,1.33Zm-.33.66s-.02.09-.06.19c-.05.1-.07.28-.07.54,0,1-.18,1.72-.54,2.18-.39.49-1.09.86-2.1,1.11-.13.03-.21.05-.24.05-.07,0-.15-.06-.22-.18-.08-.14-.22-.29-.42-.43.88-.15,1.52-.34,1.92-.57.35-.21.59-.49.72-.86h-1.49v.36c0,.06-.03.09-.09.09h-.6c-.06,0-.09-.03-.09-.09l.03-.64v-.73c0-.4-.02-.71-.07-.93.29.01.55.04.76.07.14.02.21.07.21.13,0,.04-.02.11-.06.18-.06.14-.1.3-.1.48v.45h1.6c.02-.19.03-.34.03-.47,0-.47-.02-.84-.07-1.12.32.01.57.04.77.07.12.03.18.07.18.12Zm4.86-.73s.01.04.01.05c0,.04-.03.07-.1.1l-.35.15c-.05.02-.09.04-.12.04-.03,0-.07-.04-.1-.11l-.14-.29c-.91.13-1.81.22-2.68.27-.26,0-.43.04-.51.1-.07.05-.12.07-.17.07-.05,0-.1-.06-.13-.18-.06-.19-.12-.4-.16-.62.28.02.47.03.56.03.27-.24.54-.52.83-.81-.39-.4-.91-.83-1.56-1.3-.05-.03-.07-.06-.07-.08s.02-.05.07-.1l.24-.27c.05-.05.09-.08.12-.08.02,0,.05.01.09.04l.44.33c.3-.32.55-.65.76-.99.1-.15.19-.34.27-.56.27.12.48.22.63.3.09.05.14.11.14.17,0,.04-.04.08-.12.13-.07.04-.17.14-.3.31-.23.3-.53.64-.89,1.03l.64.58c.19-.21.39-.45.6-.73.18-.22.3-.43.37-.62.24.12.45.25.63.37.08.05.12.1.12.15,0,.04-.06.09-.17.16-.1.06-.25.2-.43.41-.51.57-1.03,1.07-1.56,1.51.56-.02,1.22-.08,1.99-.16-.05-.09-.16-.27-.33-.54-.03-.04-.04-.07-.04-.09,0-.02.03-.05.1-.07l.28-.14s.07-.02.1-.02c.03,0,.07.03.12.08.33.42.61.87.84,1.37Zm-.67,1.03s-.02.11-.06.18c-.05.1-.07.3-.07.6v1.41c.01.06,0,.1-.06.1h-.6c-.06,0-.09-.03-.09-.1v-.4h-1.64v.4l.03,1.31c0,.08-.04.12-.13.12h-.57c-.07,0-.1-.04-.1-.12l.03-1.31v-1.57c0-.47-.03-.83-.09-1.08.26.01.53.04.81.07.12.02.18.05.18.12,0,.04-.02.12-.07.21-.05.09-.08.31-.08.66v.56h1.64v-.5c0-.38-.03-.67-.08-.88.26.01.52.04.78.09.12.01.18.06.18.13Zm2.29,2.33c0,.34-.03.6-.1.76-.05.14-.15.26-.29.38-.23.2-.67.3-1.33.3h-.18c-.16,0-.25-.01-.28-.04-.02-.03-.05-.11-.08-.24-.05-.22-.14-.44-.27-.64.35.04.65.06.92.06.32,0,.52-.05.6-.16.06-.08.09-.27.09-.57v-7.55h-2.79l-1.62.03c-.08,0-.12-.04-.12-.12l.03-1.17v-1.23l-.03-1.19c0-.08.04-.12.12-.12l1.62.03h1.93l1.64-.03c.08,0,.12.04.12.12l-.03,2.15v6.98l.04,2.26Zm-.92-9.93v-.9h-3.66v.9h3.66Zm0,1.59v-.96h-3.66v.96h3.66Z" style="fill: #253e56;"/>
            <path d="m1563.87,26.48c-.17.13-.3.3-.4.51-.06.11-.11.17-.15.17s-.11-.05-.21-.15c-.7-.71-1.24-1.38-1.61-2.01-.58,1.06-1.33,2.04-2.26,2.94-.1.08-.16.12-.19.12-.04,0-.1-.08-.18-.24-.12-.24-.22-.4-.3-.49.85-.74,1.6-1.67,2.23-2.8.16-.28.26-.55.3-.81.36.07.64.15.86.23.11.03.17.07.17.13,0,.07-.04.13-.13.18l-.1.06c.57.85,1.23,1.57,1.98,2.18Zm-.51,4.21c0,.08-.04.12-.12.12l-1.46-.03v4.01c.41-.17.93-.39,1.55-.67-.03.17-.04.34-.04.51v.15c0,.08-.02.14-.06.18-.03.02-.1.06-.21.11-.87.41-1.84.78-2.9,1.11-.34.1-.53.17-.59.23-.07.07-.13.1-.18.1-.08,0-.14-.04-.18-.12-.1-.22-.21-.5-.31-.81.45-.05.92-.14,1.4-.27.26-.07.51-.15.73-.23v-4.29h-.45l-1.49.03c-.08,0-.12-.04-.12-.12v-.57c0-.08.04-.12.12-.12l1.49.03h.45v-1.59l-1.23.03c-.08,0-.12-.04-.12-.12v-.56c0-.08.04-.12.12-.12l1.23.03h.73l1.22-.03c.09,0,.13.04.13.12v.56c0,.08-.04.12-.13.12l-1.14-.03v1.59l1.46-.03c.08,0,.12.04.12.12v.57Zm-3,3.38v.05c0,.05-.05.1-.15.12l-.31.11c-.11.04-.17.05-.18.05-.03,0-.05-.03-.05-.09-.11-.81-.29-1.57-.56-2.3-.01-.03-.02-.06-.02-.09,0-.05.05-.09.15-.12l.31-.08s.05,0,.11-.03c.03,0,.05-.01.06-.01.03,0,.05.02.07.07.25.67.44,1.45.57,2.31Zm12.28,1.88c-.14.17-.24.38-.31.63-.04.16-.08.24-.11.26-.03.02-.12.04-.26.04h-.44c-.64,0-1.27-.03-1.9-.08-1.22-.11-2.2-.34-2.94-.7-.63-.31-1.16-.74-1.59-1.3l-.18-.23c-.42.8-1.07,1.6-1.96,2.41-.1.09-.17.13-.21.13-.03,0-.1-.06-.19-.17-.12-.15-.27-.28-.44-.37,1.07-.84,1.85-1.78,2.34-2.82-.32-.64-.59-1.47-.82-2.51,0-.04-.01-.07-.01-.09,0-.06.06-.11.19-.15l.27-.09c.05-.02.1-.03.13-.03.05,0,.08.04.1.13.15.68.31,1.28.5,1.8.24-.75.46-1.76.64-3.03h-1.29s-.05.1-.08.16-.06.11-.07.12c-.03.07-.08.1-.12.1-.03,0-.07-.02-.12-.04l-.31-.16c-.12-.06-.18-.11-.18-.15,0-.02.01-.06.04-.1.76-1.29,1.42-2.72,1.98-4.29h-.78l-.81.04c-.08,0-.12-.04-.12-.12v-.57c0-.08.04-.12.12-.12l.9.03h.67c.07,0,.14-.01.21-.04.08-.02.13-.03.15-.03.09,0,.22.09.4.26.17.18.26.29.26.34s-.03.11-.1.18c-.02.02-.09.19-.21.48-.4,1.02-.87,2.08-1.43,3.16h.99s.1,0,.2-.03c.06-.02.1-.03.1-.03.09,0,.22.09.39.27.13.14.2.24.2.3,0,.03-.03.09-.09.16-.07.11-.13.3-.17.59-.28,1.54-.58,2.7-.9,3.49.09.14.19.26.29.37.47.6,1.06,1.03,1.75,1.3.62.24,1.41.4,2.38.47.43.03.9.04,1.41.04s1.03-.01,1.56-.04Zm-9.05-4.02c0,.06-.03.12-.09.16-.09.07-.15.17-.18.31-.14.52-.31,1.01-.51,1.47-.04.1-.08.15-.13.15-.03,0-.07-.01-.11-.04-.16-.08-.31-.13-.45-.14.21-.48.39-1.06.54-1.74.04-.15.06-.34.06-.56.28.07.53.15.74.24.09.03.13.08.13.13Zm8.79-4.25c0,.08-.04.12-.12.12-.01,0-.1,0-.26,0-.17,0-.35-.02-.55-.02v.56l.03,1.41c0,.08-.04.12-.13.12l-1.55-.03h-.51v1.28h.78l1.56-.03c.08,0,.12.04.12.12v.5c0,.08-.04.12-.12.12l-1.56-.03h-.78v1.26h1.11l1.76-.03c.07,0,.1.04.1.12v.53c0,.08-.03.12-.1.12l-1.76-.03h-1.11l.03,1.47c0,.08-.04.12-.12.12h-.62c-.08,0-.12-.04-.12-.12,0,0,0-.08,0-.2,0-.4.01-.82.02-1.27h-.5l-1.75.03c-.08,0-.12-.04-.12-.12v-.53c0-.08.04-.12.12-.12l1.75.03h.5v-1.26h-.17l-1.56.03c-.08,0-.12-.04-.12-.12v-.5c0-.08.04-.12.12-.12l1.56.03h.17v-1.28h-.31l-1.26.03c-.08,0-.12-.04-.12-.12v-.5c0-.08.04-.12.12-.12l1.26.03h.31v-1.36h-.37l-1.93.03c-.07,0-.1-.04-.1-.12v-.53c0-.08.03-.12.1-.12l1.93.03h.37v-1.3h-.11l-1.44.03c-.08,0-.12-.05-.12-.14v-.49c0-.08.04-.12.12-.12l1.44.03h.11c0-.63-.04-1.1-.11-1.41.41.01.7.04.89.07.11.02.17.06.17.14,0,.04-.02.11-.06.22-.06.16-.1.46-.1.9v.07h.51l1.55-.03c.09,0,.13.04.13.12l-.03,1.41v.5l.81-.03c.08,0,.12.04.12.12v.53Zm-1.69-.62v-1.3h-1.4v1.3h1.4Zm0,2.07v-1.36h-1.4v1.36h1.4Z" style="fill: #253e56;"/>
            <path d="m1587,32.35c0,.08-.04.12-.13.12l-1.97-.03h-3.88v3.34c.01.41-.1.71-.31.89-.23.19-.79.28-1.66.28-.15,0-.31,0-.49,0-.15,0-.24-.02-.27-.05-.02-.03-.06-.12-.1-.26-.06-.23-.16-.45-.3-.67.44.06.96.09,1.56.09.27,0,.44-.04.53-.12.08-.08.12-.23.12-.45v-3.02h-3.85l-1.98.03c-.08,0-.12-.04-.12-.12v-.65c0-.09.04-.13.12-.13l1.98.03h3.85c0-.64-.03-1.13-.1-1.48.35.05.62.1.81.15.86-.53,1.61-1.09,2.23-1.69h-4.41l-1.99.03c-.08,0-.12-.04-.12-.12v-.64c0-.08.04-.12.12-.12l1.99.03h4.55c.19,0,.33-.02.43-.06.06-.03.11-.04.15-.04.09,0,.23.1.42.3.23.23.34.4.34.51,0,.1-.06.17-.18.21-.1.04-.29.17-.58.4-.87.7-1.78,1.33-2.73,1.88v.64h3.88l1.97-.03c.09,0,.13.04.13.13v.65Zm-.46-3.99c0,.08-.04.12-.12.12h-.7c-.08,0-.12-.04-.12-.12v-2.23h-10.25v2.23c0,.08-.04.12-.12.12h-.7c-.08,0-.12-.04-.12-.12l.03-1.62v-.5l-.03-.84c0-.08.04-.12.12-.12l2.09.03h3.29v-.21c0-.73-.04-1.24-.11-1.53.28.01.61.04.99.08.12.01.18.05.18.12,0,.05-.03.15-.09.29-.05.11-.07.46-.07,1.05v.21h3.52l2.07-.03c.08,0,.12.04.12.12l-.03.74v.6l.03,1.62Z" style="fill: #253e56;"/>
          </g>
        </g>
      </g>
    </g>
  </g>
</svg>